<?xml version="1.0" encoding="UTF-8"?>
<svg version="1.1" xmlns="http://www.w3.org/2000/svg" width="128" height="128">
<path d="M0 0 C12.10642928 1.3709195 24.05886975 3.30531818 36.05078125 5.44140625 C37.92639741 5.77273982 39.80206472 6.10378393 41.67778015 6.43455505 C45.5716845 7.12208978 49.46510184 7.81229685 53.3581543 8.50463867 C58.34957964 9.39220388 63.34198392 10.27411501 68.33472919 11.15422153 C72.19111138 11.83443113 76.04707974 12.51696182 79.90291405 13.2002697 C81.74523916 13.52658652 83.58766749 13.85232118 85.43020058 14.17746162 C87.9907423 14.62978725 90.55073674 15.08508824 93.1105957 15.54125977 C93.86948593 15.67478348 94.62837616 15.80830719 95.41026306 15.94587708 C98.36301697 16.47474255 101.14927678 17.04975893 104 18 C103.53472089 28.80465344 101.48836839 39.34774067 99.56152344 49.96655273 C98.99585343 53.08536202 98.43868743 56.20560335 97.8828125 59.32617188 C97.52653089 61.31258781 97.16977733 63.29891916 96.8125 65.28515625 C96.64580811 66.21634781 96.47911621 67.14753937 96.30737305 68.10694885 C96.15051025 68.9689238 95.99364746 69.83089874 95.83203125 70.71899414 C95.69514893 71.47555801 95.5582666 72.23212189 95.41723633 73.01161194 C95 75 95 75 94 78 C87.45709883 77.42285085 81.02404983 76.58616299 74.55883789 75.43359375 C73.23251343 75.20169846 73.23251343 75.20169846 71.87939453 74.96511841 C68.99316945 74.45951217 66.10790416 73.94865047 63.22265625 73.4375 C61.20393795 73.08234546 59.18517396 72.72745054 57.16636658 72.37280273 C52.95416939 71.63202589 48.74242366 70.88874938 44.53100586 70.14355469 C39.12907626 69.18782082 33.72622529 68.23741895 28.32305241 67.28874207 C24.16298894 66.55789874 20.003334 65.82475275 15.84380913 65.09085083 C13.8507688 64.73939196 11.85762155 64.38853881 9.86436653 64.03829956 C7.08763755 63.54993867 4.31145207 63.05860058 1.53540039 62.56640625 C0.71097946 62.42196075 -0.11344147 62.27751526 -0.96284485 62.12869263 C-4.06206596 61.57661352 -7.0088342 60.99705527 -10 60 C-9.53472089 49.19534656 -7.48836839 38.65225933 -5.56152344 28.03344727 C-4.99585343 24.91463798 -4.43868743 21.79439665 -3.8828125 18.67382812 C-3.52653089 16.68741219 -3.16977733 14.70108084 -2.8125 12.71484375 C-2.56246216 11.31805641 -2.56246216 11.31805641 -2.30737305 9.89305115 C-2.15051025 9.0310762 -1.99364746 8.16910126 -1.83203125 7.28100586 C-1.62670776 6.14616005 -1.62670776 6.14616005 -1.41723633 4.98838806 C-1 3 -1 3 0 0 Z " fill="#FCCA1D" transform="translate(17,25)"/>
<path d="M0 0 C12.10642928 1.3709195 24.05886975 3.30531818 36.05078125 5.44140625 C37.92639741 5.77273982 39.80206472 6.10378393 41.67778015 6.43455505 C45.5716845 7.12208978 49.46510184 7.81229685 53.3581543 8.50463867 C58.34957964 9.39220388 63.34198392 10.27411501 68.33472919 11.15422153 C72.19111138 11.83443113 76.04707974 12.51696182 79.90291405 13.2002697 C81.74523916 13.52658652 83.58766749 13.85232118 85.43020058 14.17746162 C87.9907423 14.62978725 90.55073674 15.08508824 93.1105957 15.54125977 C93.86948593 15.67478348 94.62837616 15.80830719 95.41026306 15.94587708 C98.36301697 16.47474255 101.14927678 17.04975893 104 18 C103.53472089 28.80465344 101.48836839 39.34774067 99.56152344 49.96655273 C98.99585343 53.08536202 98.43868743 56.20560335 97.8828125 59.32617188 C97.52653089 61.31258781 97.16977733 63.29891916 96.8125 65.28515625 C96.64580811 66.21634781 96.47911621 67.14753937 96.30737305 68.10694885 C96.15051025 68.9689238 95.99364746 69.83089874 95.83203125 70.71899414 C95.69514893 71.47555801 95.5582666 72.23212189 95.41723633 73.01161194 C95 75 95 75 94 78 C87.45709883 77.42285085 81.02404983 76.58616299 74.55883789 75.43359375 C73.23251343 75.20169846 73.23251343 75.20169846 71.87939453 74.96511841 C68.99316945 74.45951217 66.10790416 73.94865047 63.22265625 73.4375 C61.20393795 73.08234546 59.18517396 72.72745054 57.16636658 72.37280273 C52.95416939 71.63202589 48.74242366 70.88874938 44.53100586 70.14355469 C39.12907626 69.18782082 33.72622529 68.23741895 28.32305241 67.28874207 C24.16298894 66.55789874 20.003334 65.82475275 15.84380913 65.09085083 C13.8507688 64.73939196 11.85762155 64.38853881 9.86436653 64.03829956 C7.08763755 63.54993867 4.31145207 63.05860058 1.53540039 62.56640625 C0.71097946 62.42196075 -0.11344147 62.27751526 -0.96284485 62.12869263 C-4.06206596 61.57661352 -7.0088342 60.99705527 -10 60 C-9.53472089 49.19534656 -7.48836839 38.65225933 -5.56152344 28.03344727 C-4.99585343 24.91463798 -4.43868743 21.79439665 -3.8828125 18.67382812 C-3.52653089 16.68741219 -3.16977733 14.70108084 -2.8125 12.71484375 C-2.56246216 11.31805641 -2.56246216 11.31805641 -2.30737305 9.89305115 C-2.15051025 9.0310762 -1.99364746 8.16910126 -1.83203125 7.28100586 C-1.62670776 6.14616005 -1.62670776 6.14616005 -1.41723633 4.98838806 C-1 3 -1 3 0 0 Z M5 5 C5.02320313 5.61415771 5.04640625 6.22831543 5.0703125 6.86108398 C5.09738281 8.07260132 5.09738281 8.07260132 5.125 9.30859375 C5.14820313 10.10837646 5.17140625 10.90815918 5.1953125 11.73217773 C4.90972809 15.04816974 3.33311573 16.73979414 1 19 C1.33 19.5775 1.66 20.155 2 20.75 C3 23 3 23 3 27 C4.32 27 5.64 27 7 27 C6.91621094 26.38511719 6.83242188 25.77023438 6.74609375 25.13671875 C6.64425781 24.32847656 6.54242188 23.52023438 6.4375 22.6875 C6.33308594 21.88699219 6.22867187 21.08648437 6.12109375 20.26171875 C6 18 6 18 7 15 C7.66 15 8.32 15 9 15 C8.67 13.02 8.34 11.04 8 9 C10.97 9.495 10.97 9.495 14 10 C14.15855469 10.60585938 14.31710938 11.21171875 14.48046875 11.8359375 C16.28640587 18.32134705 18.81240153 24.07837438 22 30 C23.98 30 25.96 30 28 30 C27.67 33.96 27.34 37.92 27 42 C30.17242063 43.58621032 33.58690042 42.96659922 37.0625 42.875 C43.71915268 42.76891789 48.78292236 43.42741615 55 46 C55.99 46 56.98 46 58 46 C57.505 46.99 57.505 46.99 57 48 C55.845 47.525625 54.69 47.05125 53.5 46.5625 C48.92489925 45.02532443 44.53390962 44.54653686 39.75 44.25 C39.06486328 44.20560791 38.37972656 44.16121582 37.67382812 44.11547852 C33.94726358 43.92960475 30.61864713 44.07429957 27 45 C26.34 47.31 25.68 49.62 25 52 C27.31 52.33 29.62 52.66 32 53 C32.309375 53.78375 32.61875 54.5675 32.9375 55.375 C33.92875038 57.92330128 33.92875038 57.92330128 35 60 C32.87420987 59.94011859 30.74921587 59.85137256 28.625 59.75 C27.44164063 59.70359375 26.25828125 59.6571875 25.0390625 59.609375 C22 59 22 59 20.5859375 56.953125 C20.39257812 56.30859375 20.19921875 55.6640625 20 55 C18.64455078 55.05220703 18.64455078 55.05220703 17.26171875 55.10546875 C16.08222656 55.13253906 14.90273438 55.15960938 13.6875 55.1875 C12.51574219 55.22230469 11.34398437 55.25710937 10.13671875 55.29296875 C7 55 7 55 5.125 53.765625 C3.75540791 51.6161263 3.50481764 50.0968191 3.3125 47.5625 C3.24675781 46.80066406 3.18101563 46.03882813 3.11328125 45.25390625 C3.00862246 43.17155729 3 41.08497738 3 39 C3.66 39 4.32 39 5 39 C4.44271087 35.65626525 3.64826111 32.96687001 2 30 C1.7834375 31.11375 1.7834375 31.11375 1.5625 32.25 C1.376875 33.1575 1.19125 34.065 1 35 C0.814375 36.0828125 0.814375 36.0828125 0.625 37.1875 C0 39 0 39 -3 41 C-2.90460937 41.74765625 -2.80921875 42.4953125 -2.7109375 43.265625 C-2.60007812 44.25046875 -2.48921875 45.2353125 -2.375 46.25 C-2.25898438 47.22453125 -2.14296875 48.1990625 -2.0234375 49.203125 C-1.99887463 52.13429393 -2.4687283 53.54528964 -4 56 C0.01983721 57.79855049 3.99398764 58.66673517 8.3125 59.375 C9.40643066 59.56171265 9.40643066 59.56171265 10.52246094 59.75219727 C14.9171688 60.49845982 19.31647961 61.21706516 23.71484375 61.94140625 C25.7265894 62.27327446 27.73830767 62.60530872 29.75 62.9375 C30.76602295 63.10475586 31.7820459 63.27201172 32.82885742 63.44433594 C39.6150963 64.57206417 46.37285922 65.80935953 53.125 67.125 C60.0098038 68.46582947 66.87105747 69.6298604 73.82421875 70.5625 C78.90142382 71.26194276 83.94956099 72.1305105 89 73 C88.98839844 72.38511719 88.97679688 71.77023438 88.96484375 71.13671875 C88.95582031 70.32847656 88.94679688 69.52023438 88.9375 68.6875 C88.92589844 67.88699219 88.91429688 67.08648437 88.90234375 66.26171875 C89 64 89 64 90 61 C90.99 60.67 91.98 60.34 93 60 C92.5875 58.7625 92.175 57.525 91.75 56.25 C91.1796875 54.046875 91.1796875 54.046875 91 52 C92.875 49.5 92.875 49.5 95 48 C94.649375 47.2575 94.29875 46.515 93.9375 45.75 C92.9356049 42.81110772 92.78657983 41.8002004 94 39 C94.556875 38.5875 95.11375 38.175 95.6875 37.75 C96.120625 37.1725 96.55375 36.595 97 36 C96.66336704 34.1444963 96.66336704 34.1444963 96 32.125 C94.84204754 28.33026423 94.84204754 28.33026423 96.375 25.125 C96.91125 24.42375 97.4475 23.7225 98 23 C98 22.34 98 21.68 98 21 C81.77307132 18.00528246 65.52024915 15.18621231 49.25 12.4375 C46.94919924 12.04764119 44.64841792 11.65766759 42.34765625 11.26757812 C29.90167692 9.15884309 17.45307268 7.06643553 5 5 Z " fill="#DF7204" transform="translate(17,25)"/>
<path d="M0 0 C4.875 0.875 4.875 0.875 6 2 C6.04080783 3.99958364 6.04254356 6.00045254 6 8 C6.66 8 7.32 8 8 8 C8 9.32 8 10.64 8 12 C8.99 12.33 9.98 12.66 11 13 C11 13.66 11 14.32 11 15 C16.79717123 10.7388113 16.79717123 10.7388113 20 4.5625 C20 3.716875 20 2.87125 20 2 C21.65 2 23.3 2 25 2 C26.125 5.75 26.125 5.75 25 8 C25.97940398 10.34205301 26.98034573 12.67518826 28 15 C28 15.99 28 16.98 28 18 C29.134375 17.38125 30.26875 16.7625 31.4375 16.125 C32.39462891 15.60292969 32.39462891 15.60292969 33.37109375 15.0703125 C35.16618315 14.08589976 35.16618315 14.08589976 36 12 C36.99 12 37.98 12 39 12 C39.33 10.35 39.66 8.7 40 7 C42.475 7.495 42.475 7.495 45 8 C44.67 9.65 44.34 11.3 44 13 C43.01 13 42.02 13 41 13 C40.814375 14.7634375 40.814375 14.7634375 40.625 16.5625 C40.13564065 20.54120426 39.1944795 24.17766559 38 28 C39.98 28.66 41.96 29.32 44 30 C44.0825 30.74765625 44.165 31.4953125 44.25 32.265625 C45.16255812 35.59265982 46.34487862 36.60693774 49 38.75 C49.721875 39.34296875 50.44375 39.9359375 51.1875 40.546875 C51.785625 41.02640625 52.38375 41.5059375 53 42 C54 43 54 43 54.0625 46.0625 C54.041875 47.031875 54.02125 48.00125 54 49 C41.14858898 48.01019968 28.61663066 46.66890264 16 44 C14.00032968 43.60250456 12.000376 43.20642879 10 42.8125 C8.66645315 42.54271996 7.3330199 42.27237185 6 42 C6.99 41.505 6.99 41.505 8 41 C7.505 40.21625 7.01 39.4325 6.5 38.625 C5 36 5 36 5 34 C2.69 33.67 0.38 33.34 -2 33 C-1.01 29.535 -1.01 29.535 0 26 C4.28137641 24.90688262 8.31603226 24.96515152 12.6875 25.25 C13.74227539 25.31562134 13.74227539 25.31562134 14.81835938 25.38256836 C20.48744642 25.80930876 25.67588419 26.96506151 31 29 C31 28.34 31 27.68 31 27 C30.30132812 26.86722656 29.60265625 26.73445313 28.8828125 26.59765625 C27.97273438 26.42105469 27.06265625 26.24445313 26.125 26.0625 C24.76761719 25.80146484 24.76761719 25.80146484 23.3828125 25.53515625 C21 25 21 25 19 24 C17.62451844 23.91691362 16.24514204 23.89263984 14.8671875 23.90234375 C14.06152344 23.90556641 13.25585938 23.90878906 12.42578125 23.91210938 C11.58402344 23.92048828 10.74226563 23.92886719 9.875 23.9375 C8.60076172 23.94426758 8.60076172 23.94426758 7.30078125 23.95117188 C5.20049091 23.96297126 3.1002367 23.98090694 1 24 C-0.25180279 19.78080897 0.32747579 16.03911435 0.9375 11.75 C1.08735352 10.63238281 1.08735352 10.63238281 1.24023438 9.4921875 C1.48680156 7.66054558 1.74250391 5.83013749 2 4 C1.34 4 0.68 4 0 4 C0 2.68 0 1.36 0 0 Z " fill="#EE8B50" transform="translate(44,44)"/>
<path d="M0 0 C6.86515862 -0.26404456 13.25846717 0.74158054 20 2 C20 2.66 20 3.32 20 4 C21.15113281 3.98582031 22.30226563 3.97164062 23.48828125 3.95703125 C30.59917157 3.97738835 37.37277301 4.2314831 44 7 C48.13383232 12.64957083 48.94363141 19.22078022 50 26 C50.66 26 51.32 26 52 26 C52.97948712 28.77072043 53.95860275 31.54157117 54.9375 34.3125 C55.35418945 35.49102539 55.35418945 35.49102539 55.77929688 36.69335938 C56.04677734 37.45068359 56.31425781 38.20800781 56.58984375 38.98828125 C56.95903931 40.03302612 56.95903931 40.03302612 57.33569336 41.09887695 C57.90482813 42.72763566 58.45440223 44.36320668 59 46 C57.6875 48.1875 57.6875 48.1875 56 50 C55.34 50 54.68 50 54 50 C54.495 52.97 54.495 52.97 55 56 C53.35 55.67 51.7 55.34 50 55 C49.835 53.989375 49.67 52.97875 49.5 51.9375 C48.27757548 47.43094991 45.31399449 45.38534465 41.6796875 42.67578125 C41.12539062 42.12277344 40.57109375 41.56976563 40 41 C40 39.68 40 38.36 40 37 C38.02 36.01 36.04 35.02 34 34 C34.64147292 28.86821666 35.46439743 23.94805273 37 19 C37.99 18.67 38.98 18.34 40 18 C40 16.68 40 15.36 40 14 C38.68 14 37.36 14 36 14 C35.67 15.32 35.34 16.64 35 18 C34.01 18 33.02 18 32 18 C31.79375 18.61875 31.5875 19.2375 31.375 19.875 C29.45224112 22.84653645 27.33405473 23.13024659 24 24 C23.29911844 22.25531628 22.61475991 20.50398839 21.9375 18.75 C21.55464844 17.77546875 21.17179687 16.8009375 20.77734375 15.796875 C19.98886213 12.95992605 19.97562188 11.70590448 21 9 C18.525 8.505 18.525 8.505 16 8 C16.144375 8.845625 16.28875 9.69125 16.4375 10.5625 C15.86147311 15.08842554 13.94290721 16.62217463 10.7265625 19.6796875 C9 21 9 21 7 21 C5.375 19.75 5.375 19.75 4 18 C4 16.68 4 15.36 4 14 C3.34 14 2.68 14 2 14 C-0.29612756 4.58997722 -0.29612756 4.58997722 0 0 Z " fill="#F1820B" transform="translate(48,38)"/>
<path d="M0 0 C2.31 0 4.62 0 7 0 C7.2475 0.94875 7.495 1.8975 7.75 2.875 C8.89891338 6.93339188 10.47468803 10.77896943 12.09765625 14.66796875 C12.91104371 16.77009998 13.51012776 18.80315027 14 21 C15.98 21 17.96 21 20 21 C20 24.96 20 28.92 20 33 C21.16015625 32.95359375 22.3203125 32.9071875 23.515625 32.859375 C32.69384665 32.60456104 41.71311472 32.36863795 50 37 C50.33 37.99 50.66 38.98 51 40 C50.3915625 39.79503906 49.783125 39.59007812 49.15625 39.37890625 C39.27838038 36.34291397 29.28742001 35.90070058 19 36 C18.34 38.31 17.68 40.62 17 43 C18.6396875 43.0928125 18.6396875 43.0928125 20.3125 43.1875 C24 44 24 44 25.9375 46.4375 C27 49 27 49 27 51 C17.58418741 51.15959004 17.58418741 51.15959004 14 50 C13.34 49.01 12.68 48.02 12 47 C8.68501366 46.82576217 5.47515888 47.07213989 2.1640625 47.28515625 C-1 47 -1 47 -3.36328125 45.27734375 C-5.12809698 42.82176482 -5.59286914 41.48289352 -5.8125 38.5 C-5.88082031 37.7471875 -5.94914062 36.994375 -6.01953125 36.21875 C-5.99981222 33.97866873 -5.63716075 32.14008191 -5 30 C-4.34 30 -3.68 30 -3 30 C-3.99 27.36 -4.98 24.72 -6 22 C-6.66 22.99 -7.32 23.98 -8 25 C-8.6875 23.1875 -8.6875 23.1875 -9 21 C-7.875 19.25 -7.875 19.25 -6 18 C-3.3125 17.8125 -3.3125 17.8125 -1 18 C-1.16757812 17.38511719 -1.33515625 16.77023438 -1.5078125 16.13671875 C-1.71148438 15.32847656 -1.91515625 14.52023438 -2.125 13.6875 C-2.33382813 12.88699219 -2.54265625 12.08648437 -2.7578125 11.26171875 C-3 9 -3 9 -1 6 C-0.34 6 0.32 6 1 6 C0.67 4.02 0.34 2.04 0 0 Z " fill="#FCA23E" transform="translate(25,34)"/>
<path d="M0 0 C3.23356015 1.21258505 4.00856305 2.01284458 6 5 C5.875 7.0625 5.875 7.0625 5 9 C2.9375 10.25 2.9375 10.25 1 11 C1.33 11.70125 1.66 12.4025 2 13.125 C3.36694486 17.05496648 3.77119897 20.34192222 1.984375 24.18359375 C1.49710938 25.08271484 1.49710938 25.08271484 1 26 C2.25321045 26.22139648 3.5064209 26.44279297 4.79760742 26.67089844 C9.5561565 27.51194673 14.31437588 28.35484844 19.07250977 29.19824219 C21.11148615 29.55940581 23.15054552 29.92010123 25.18969727 30.28027344 C36.83617723 32.33773203 48.47237458 34.43128517 60.07975769 36.70050049 C64.89616498 37.63424704 69.6979722 38.42323208 74.5625 39.0625 C80.84688673 39.89790949 86.89116563 41.3217488 93 43 C92.82210937 42.09507813 92.82210937 42.09507813 92.640625 41.171875 C92.24746222 38.73426579 91.94394492 36.47073531 92 34 C93.33333333 32.66666667 94.66666667 31.33333333 96 30 C95.74788555 27.11469013 94.92542909 24.77628727 94 22 C94.78375 21.54625 95.5675 21.0925 96.375 20.625 C99.03698031 19.11571258 99.03698031 19.11571258 101 17 C101.66 17 102.32 17 103 17 C102.51732412 27.52233409 100.16651075 37.72557498 98 48 C91.45709883 47.42285085 85.02404983 46.58616299 78.55883789 45.43359375 C77.67462158 45.27899689 76.79040527 45.12440002 75.87939453 44.96511841 C72.99316945 44.45951217 70.10790416 43.94865047 67.22265625 43.4375 C65.20393795 43.08234546 63.18517396 42.72745054 61.16636658 42.37280273 C56.95416939 41.63202589 52.74242366 40.88874938 48.53100586 40.14355469 C43.12907626 39.18782082 37.72622529 38.23741895 32.32305241 37.28874207 C28.16298894 36.55789874 24.003334 35.82475275 19.84380913 35.09085083 C17.8507688 34.73939196 15.85762155 34.38853881 13.86436653 34.03829956 C11.08763755 33.54993867 8.31145207 33.05860058 5.53540039 32.56640625 C4.71097946 32.42196075 3.88655853 32.27751526 3.03715515 32.12869263 C-0.06206596 31.57661352 -3.0088342 30.99705527 -6 30 C-5.60132766 22.8651398 -4.75563975 15.85313958 -3.5625 8.8125 C-3.44028076 8.05783447 -3.31806152 7.30316895 -3.19213867 6.52563477 C-2.86497342 4.6699977 -2.44061175 2.83201728 -2 1 C-1.34 0.67 -0.68 0.34 0 0 Z " fill="#DC6004" transform="translate(13,55)"/>
<path d="M0 0 C4.875 0.875 4.875 0.875 6 2 C6.04080783 3.99958364 6.04254356 6.00045254 6 8 C6.66 8 7.32 8 8 8 C8 9.32 8 10.64 8 12 C8.99 12.33 9.98 12.66 11 13 C11 13.66 11 14.32 11 15 C16.79717123 10.7388113 16.79717123 10.7388113 20 4.5625 C20 3.716875 20 2.87125 20 2 C21.65 2 23.3 2 25 2 C26.125 5.75 26.125 5.75 25 8 C25.97940398 10.34205301 26.98034573 12.67518826 28 15 C28 15.99 28 16.98 28 18 C29.134375 17.38125 30.26875 16.7625 31.4375 16.125 C32.39462891 15.60292969 32.39462891 15.60292969 33.37109375 15.0703125 C35.16618315 14.08589976 35.16618315 14.08589976 36 12 C36.99 12 37.98 12 39 12 C39.33 10.35 39.66 8.7 40 7 C42.475 7.495 42.475 7.495 45 8 C44.67 9.65 44.34 11.3 44 13 C43.01 13 42.02 13 41 13 C40.814375 14.7015625 40.814375 14.7015625 40.625 16.4375 C40.05770917 21.03337785 39.07315212 25.49901249 38 30 C33.64763247 29.34055037 30.02794303 27.73618234 26 26 C20.35524725 24.03874718 15.45089875 23.75163306 9.5625 23.875 C8.32209961 23.88853516 8.32209961 23.88853516 7.05664062 23.90234375 C5.03763292 23.92568488 3.01877644 23.96154712 1 24 C-0.25180279 19.78080897 0.32747579 16.03911435 0.9375 11.75 C1.08735352 10.63238281 1.08735352 10.63238281 1.24023438 9.4921875 C1.48680156 7.66054558 1.74250391 5.83013749 2 4 C1.34 4 0.68 4 0 4 C0 2.68 0 1.36 0 0 Z " fill="#FDEF33" transform="translate(44,44)"/>
<path d="M0 0 C6.86515862 -0.26404456 13.25846717 0.74158054 20 2 C20 2.66 20 3.32 20 4 C21.2375 3.9175 22.475 3.835 23.75 3.75 C26.86612666 3.75550552 27.75148588 3.82342417 30.375 5.6875 C33.24811586 9.77616488 34.2858078 12.99836351 34 18 C33.34 18 32.68 18 32 18 C31.79375 18.61875 31.5875 19.2375 31.375 19.875 C29.45224112 22.84653645 27.33405473 23.13024659 24 24 C23.29911844 22.25531628 22.61475991 20.50398839 21.9375 18.75 C21.55464844 17.77546875 21.17179687 16.8009375 20.77734375 15.796875 C19.98886213 12.95992605 19.97562188 11.70590448 21 9 C18.525 8.505 18.525 8.505 16 8 C16.144375 8.845625 16.28875 9.69125 16.4375 10.5625 C15.86147311 15.08842554 13.94290721 16.62217463 10.7265625 19.6796875 C9 21 9 21 7 21 C5.375 19.75 5.375 19.75 4 18 C4 16.68 4 15.36 4 14 C3.34 14 2.68 14 2 14 C-0.29612756 4.58997722 -0.29612756 4.58997722 0 0 Z " fill="#EC8955" transform="translate(48,38)"/>
<path d="M0 0 C0 2.31 0 4.62 0 7 C-1.41750563 6.88490339 -2.83401169 6.75746342 -4.25 6.625 C-5.03890625 6.55539063 -5.8278125 6.48578125 -6.640625 6.4140625 C-9 6 -9 6 -10.84472656 5.01147461 C-13.2762093 3.87037436 -15.17291693 3.61690894 -17.84375 3.40234375 C-19.21853516 3.28342773 -19.21853516 3.28342773 -20.62109375 3.16210938 C-22.04615234 3.05092773 -22.04615234 3.05092773 -23.5 2.9375 C-25.38564529 2.78270822 -27.27107452 2.62525601 -29.15625 2.46484375 C-29.98962891 2.399021 -30.82300781 2.33319824 -31.68164062 2.26538086 C-33.86497269 2.01545648 -35.8850509 1.58684361 -38 1 C-37.34 -1.31 -36.68 -3.62 -36 -6 C-23.46424956 -9.13393761 -11.19799408 -5.59899704 0 0 Z " fill="#FDF233" transform="translate(80,76)"/>
<path d="M0 0 C3.59134257 0.68933353 6.4342523 2.17871859 9.625 3.9375 C10.58664063 4.46214844 11.54828125 4.98679687 12.5390625 5.52734375 C15 7 15 7 17 9 C16.690625 10.3921875 16.690625 10.3921875 16.375 11.8125 C15.63354835 15.13027612 15.63354835 15.13027612 17.9375 17.875 C18.618125 18.57625 19.29875 19.2775 20 20 C19.67 20.66 19.34 21.32 19 22 C17.68 21.67 16.36 21.34 15 21 C15 22.65 15 24.3 15 26 C14.54109375 25.60167969 14.0821875 25.20335938 13.609375 24.79296875 C12.68898438 23.99826172 12.68898438 23.99826172 11.75 23.1875 C11.11449219 22.63707031 10.47898437 22.08664063 9.82421875 21.51953125 C7.95408886 19.90700126 7.95408886 19.90700126 5.5625 18.375 C5.046875 17.92125 4.53125 17.4675 4 17 C4 15.68 4 14.36 4 13 C2.02 12.01 0.04 11.02 -2 10 C-1.54177532 6.53058454 -1.10868317 3.32604951 0 0 Z " fill="#B03204" transform="translate(84,62)"/>
<path d="M0 0 C5.3503559 0.57021934 10.67787852 1.20734361 16 2 C15.979375 3.051875 15.95875 4.10375 15.9375 5.1875 C15.88031598 8.84514947 15.88031598 8.84514947 16.5625 11.75 C17 14 17 14 16 17 C15.34 17 14.68 17 14 17 C14 18.32 14 19.64 14 21 C14.66 21 15.32 21 16 21 C16.25 23.25 16.25 23.25 16 26 C14 28.3125 14 28.3125 12 30 C11.32404685 28.58774074 10.65959941 27.16997095 10 25.75 C9.62875 24.96109375 9.2575 24.1721875 8.875 23.359375 C8 21 8 21 8 17 C7.34 17 6.68 17 6 17 C5.18710947 14.72930578 4.37467262 12.45845099 3.5625 10.1875 C3.21735352 9.22360352 3.21735352 9.22360352 2.86523438 8.24023438 C1.88582149 5.50071717 0.92004638 2.76013914 0 0 Z " fill="#FEA640" transform="translate(92,47)"/>
<path d="M0 0 C0 2.97 0 5.94 0 9 C-0.969375 9.2475 -1.93875 9.495 -2.9375 9.75 C-4.4534375 10.36875 -4.4534375 10.36875 -6 11 C-6.11730469 11.64195313 -6.23460938 12.28390625 -6.35546875 12.9453125 C-6.56816406 13.62335938 -6.78085937 14.30140625 -7 15 C-9.3984375 16.1953125 -9.3984375 16.1953125 -12.375 17.125 C-15.70787083 18.18905639 -18.06471475 19.04314317 -21 21 C-20.67 19.35 -20.34 17.7 -20 16 C-21.32 15.01 -22.64 14.02 -24 13 C-20.375 10 -20.375 10 -17 10 C-17.04125 9.05125 -17.0825 8.1025 -17.125 7.125 C-17 4 -17 4 -15 2 C-12.28515625 1.3671875 -12.28515625 1.3671875 -9.0625 0.875 C-8.00160156 0.70742188 -6.94070312 0.53984375 -5.84765625 0.3671875 C-3 0 -3 0 0 0 Z " fill="#B23204" transform="translate(45,55)"/>
<path d="M0 0 C0.66 0.66 1.32 1.32 2 2 C4.64956155 2.04149202 7.23200244 1.98826317 9.875 1.875 C17.34382906 1.70619051 24.30284323 2.31902597 31 6 C31.495 7.485 31.495 7.485 32 9 C31.3915625 8.79503906 30.783125 8.59007813 30.15625 8.37890625 C20.27838038 5.34291397 10.28742001 4.90070058 0 5 C-0.66 7.31 -1.32 9.62 -2 12 C-0.906875 12.061875 0.18625 12.12375 1.3125 12.1875 C5 13 5 13 6.9375 15.4375 C8 18 8 18 8 20 C6.783125 20.020625 5.56625 20.04125 4.3125 20.0625 C3.62800781 20.07410156 2.94351563 20.08570312 2.23828125 20.09765625 C-0.39875874 19.98260215 -2.49076644 19.87455372 -5 19 C-6.51171875 16.56640625 -6.51171875 16.56640625 -7.6875 13.5625 C-9.27961018 9.41489938 -9.27961018 9.41489938 -12 6 C-10.5459375 5.5978125 -10.5459375 5.5978125 -9.0625 5.1875 C-7.5465625 4.5996875 -7.5465625 4.5996875 -6 4 C-5.67 3.01 -5.34 2.02 -5 1 C-3 0 -3 0 0 0 Z " fill="#E57B08" transform="translate(44,65)"/>
<path d="M0 0 C2.31 0.66 4.62 1.32 7 2 C7 1.34 7 0.68 7 0 C8.98 0.66 10.96 1.32 13 2 C13.12375 3.12148437 13.12375 3.12148437 13.25 4.265625 C14.16255812 7.59265982 15.34487862 8.60693774 18 10.75 C18.721875 11.34296875 19.44375 11.9359375 20.1875 12.546875 C20.785625 13.02640625 21.38375 13.5059375 22 14 C23 15 23 15 23 21 C16.07 20.505 16.07 20.505 9 20 C9 19.34 9 18.68 9 18 C8.01 17.67 7.02 17.34 6 17 C3.79126718 12.36166107 4.00590408 8.97047962 5 4 C4.360625 3.896875 3.72125 3.79375 3.0625 3.6875 C2.381875 3.460625 1.70125 3.23375 1 3 C0.67 2.01 0.34 1.02 0 0 Z " fill="#FA9F45" transform="translate(75,72)"/>
<path d="M0 0 C2.31 0 4.62 0 7 0 C7.2475 0.94875 7.495 1.8975 7.75 2.875 C8.89891338 6.93339188 10.47468803 10.77896943 12.09765625 14.66796875 C13 17 13 17 13.43359375 19.23828125 C13.62050781 19.81964844 13.80742188 20.40101562 14 21 C14.99 21.33 15.98 21.66 17 22 C16.15695313 22.13277344 15.31390625 22.26554687 14.4453125 22.40234375 C13.34960938 22.57894531 12.25390625 22.75554688 11.125 22.9375 C10.03445312 23.11152344 8.94390625 23.28554688 7.8203125 23.46484375 C5.06178454 23.85551159 5.06178454 23.85551159 3 25 C3 24.01 3 23.02 3 22 C2.34 22 1.68 22 1 22 C0.31875294 20.00491933 -0.34427209 18.00361307 -1 16 C-1.4125 14.783125 -1.825 13.56625 -2.25 12.3125 C-2.4975 11.219375 -2.745 10.12625 -3 9 C-2.34 8.01 -1.68 7.02 -1 6 C-0.34 6 0.32 6 1 6 C0.67 4.02 0.34 2.04 0 0 Z " fill="#F58703" transform="translate(25,34)"/>
<path d="M0 0 C4.51617599 -0.07654536 8.59085217 -0.10228696 13 1 C13.309375 1.969375 13.61875 2.93875 13.9375 3.9375 C14.69523342 6.84065792 14.69523342 6.84065792 16 8 C16.5 10.625 16.5 10.625 16 14 C13.95769225 16.67317768 11.67281166 18.9560852 9 21 C7 21 7 21 5.375 19.75 C4 18 4 18 4 14 C3.34 14 2.68 14 2 14 C-0.29612756 4.58997722 -0.29612756 4.58997722 0 0 Z " fill="#DF651D" transform="translate(48,38)"/>
<path d="M0 0 C1.2065625 0.0309375 1.2065625 0.0309375 2.4375 0.0625 C2.4375 0.7225 2.4375 1.3825 2.4375 2.0625 C3.7678125 2.000625 3.7678125 2.000625 5.125 1.9375 C8.49970063 2.06484719 10.54529911 2.32717947 13.4375 4.0625 C14.25 6.6875 14.25 6.6875 14.4375 9.0625 C12.7875 9.3925 11.1375 9.7225 9.4375 10.0625 C9.4375 11.3825 9.4375 12.7025 9.4375 14.0625 C10.0975 14.0625 10.7575 14.0625 11.4375 14.0625 C11.4375 18.0225 11.4375 21.9825 11.4375 26.0625 C11.1075 26.0625 10.7775 26.0625 10.4375 26.0625 C10.4375 24.4125 10.4375 22.7625 10.4375 21.0625 C8.4575 21.0625 6.4775 21.0625 4.4375 21.0625 C0.93536342 14.55655457 -1.69099037 8.21379696 -3.5625 1.0625 C-2.5625 0.0625 -2.5625 0.0625 0 0 Z " fill="#FCA540" transform="translate(34.5625,33.9375)"/>
<path d="M0 0 C1.64826111 2.96687001 2.44271087 5.65626525 3 9 C2.34 9 1.68 9 1 9 C0.80713668 14.49660457 1.09696754 18.81952275 3 24 C6.00313748 25.50156874 8.79067522 25.09281204 12.125 25.0625 C13.40632813 25.05347656 14.68765625 25.04445313 16.0078125 25.03515625 C17.48894531 25.01775391 17.48894531 25.01775391 19 25 C19.33 25.99 19.66 26.98 20 28 C11.25815325 28.86252888 3.55226763 29.4348809 -5 27 C-5 24 -5 24 -4 22 C-3.82951633 18.16411738 -4.12121475 14.7348373 -5 11 C-4.34 10.649375 -3.68 10.29875 -3 9.9375 C-0.5894561 8.04253947 -0.5894561 8.04253947 -0.8125 4.375 C-0.874375 3.26125 -0.93625 2.1475 -1 1 C-0.67 0.67 -0.34 0.34 0 0 Z " fill="#F8BA19" transform="translate(19,55)"/>
<path d="M0 0 C1.65 0.33 3.3 0.66 5 1 C4.67 2.65 4.34 4.3 4 6 C3.01 6 2.02 6 1 6 C0.87625 7.134375 0.7525 8.26875 0.625 9.4375 C0.05770917 14.03337785 -0.92684788 18.49901249 -2 23 C-5.55780196 22.39009109 -8.6828589 21.4216319 -12 20 C-12 19.67 -12 19.34 -12 19 C-9.03 19.33 -6.06 19.66 -3 20 C-3.33 19.34 -3.66 18.68 -4 18 C-4.13415472 15.3276379 -4.04318541 12.67749512 -4 10 C-5.98 10.33 -7.96 10.66 -10 11 C-9.195625 10.38125 -8.39125 9.7625 -7.5625 9.125 C-4.96125481 7.25835959 -4.96125481 7.25835959 -4 5 C-3.01 5 -2.02 5 -1 5 C-0.67 3.35 -0.34 1.7 0 0 Z " fill="#FDE63B" transform="translate(84,51)"/>
<path d="M0 0 C11.59497445 2.42206133 11.59497445 2.42206133 15 4 C16.25 6.5 16.25 6.5 17 9 C17.66 9.66 18.32 10.32 19 11 C13.21101581 11.20674944 8.57067277 10.59162079 3 9 C2.690625 7.88625 2.38125 6.7725 2.0625 5.625 C1.17673517 2.2054845 1.17673517 2.2054845 0 0 Z " fill="#ED710E" transform="translate(65,80)"/>
<path d="M0 0 C4.875 0.875 4.875 0.875 6 2 C6.04080783 3.99958364 6.04254356 6.00045254 6 8 C6.66 8 7.32 8 8 8 C8 9.32 8 10.64 8 12 C6.68 12 5.36 12 4 12 C3.67 14.64 3.34 17.28 3 20 C4.65 20 6.3 20 8 20 C8 20.66 8 21.32 8 22 C10.64 22 13.28 22 16 22 C16 22.33 16 22.66 16 23 C11.05 23.33 6.1 23.66 1 24 C-0.09944663 19.60221349 0.31242493 16.14493778 0.9375 11.75 C1.08735352 10.63238281 1.08735352 10.63238281 1.24023438 9.4921875 C1.48680156 7.66054558 1.74250391 5.83013749 2 4 C1.34 4 0.68 4 0 4 C0 2.68 0 1.36 0 0 Z " fill="#FEE738" transform="translate(44,44)"/>
<path d="M0 0 C2.31 0 4.62 0 7 0 C7 0.66 7 1.32 7 2 C8.2375 1.9175 9.475 1.835 10.75 1.75 C13.86612666 1.75550552 14.75148588 1.82342417 17.375 3.6875 C20.24811586 7.77616488 21.2858078 10.99836351 21 16 C20.34 15.67 19.68 15.34 19 15 C18.375 11.9375 18.375 11.9375 18 9 C17.01 9 16.02 9 15 9 C15 7.35 15 5.7 15 4 C14.01 4.33 13.02 4.66 12 5 C11.67 5.99 11.34 6.98 11 8 C9.53984709 7.71758359 8.08190207 7.42373386 6.625 7.125 C5.81289062 6.96257813 5.00078125 6.80015625 4.1640625 6.6328125 C2 6 2 6 0 4 C0 2.68 0 1.36 0 0 Z " fill="#EB963F" transform="translate(61,40)"/>
<path d="M0 0 C4.62 0.66 9.24 1.32 14 2 C9.78370866 4.10814567 7.60209225 4.17700355 3 4 C3.33 5.98 3.66 7.96 4 10 C3.34 10 2.68 10 2 10 C0.83936396 14.25566547 1.23826608 17.6835078 2 22 C0.68 21.67 -0.64 21.34 -2 21 C-2.33333333 19.66666667 -2.66666667 18.33333333 -3 17 C-3.268125 16.34 -3.53625 15.68 -3.8125 15 C-3.874375 14.34 -3.93625 13.68 -4 13 C-3.360625 12.443125 -2.72125 11.88625 -2.0625 11.3125 C0.36770236 8.58772765 0.27763434 7.78166871 0.25 4.25 C0.1675 2.8475 0.085 1.445 0 0 Z " fill="#F8BA12" transform="translate(22,30)"/>
<path d="M0 0 C0.33 0.66 0.66 1.32 1 2 C1.99 1.67 2.98 1.34 4 1 C4 1.99 4 2.98 4 4 C3.01 4.495 3.01 4.495 2 5 C2.33 5.33 2.66 5.66 3 6 C3.04063832 7.66617115 3.042721 9.33388095 3 11 C1.68 11 0.36 11 -1 11 C-1 10.01 -1 9.02 -1 8 C-1.515625 8.165 -2.03125 8.33 -2.5625 8.5 C-5.73363876 9.15049 -8.77218334 9.0620734 -12 9 C-11.67 8.01 -11.34 7.02 -11 6 C-8.9375 5.3125 -8.9375 5.3125 -7 5 C-6.67 3.68 -6.34 2.36 -6 1 C-5.01 1 -4.02 1 -3 1 C-3 1.99 -3 2.98 -3 4 C-2.34 4 -1.68 4 -1 4 C-0.67 2.68 -0.34 1.36 0 0 Z " fill="#FEFB26" transform="translate(65,56)"/>
<path d="M0 0 C3.34373475 0.55728913 6.03312999 1.35173889 9 3 C9 5.31 9 7.62 9 10 C7.58249437 9.88490339 6.16598831 9.75746342 4.75 9.625 C3.56664062 9.52058594 3.56664062 9.52058594 2.359375 9.4140625 C0 9 0 9 -1.90625 8.03125 C-4.64258287 6.68350396 -7.24110278 6.33287566 -10.25 5.875 C-11.32765625 5.70742187 -12.4053125 5.53984375 -13.515625 5.3671875 C-14.74539062 5.18542969 -14.74539062 5.18542969 -16 5 C-16 4.67 -16 4.34 -16 4 C-9.565 3.505 -9.565 3.505 -3 3 C-3 3.99 -3 4.98 -3 6 C-0.36 6.33 2.28 6.66 5 7 C5 6.01 5 5.02 5 4 C3.35 3.34 1.7 2.68 0 2 C0 1.34 0 0.68 0 0 Z " fill="#FDE644" transform="translate(71,73)"/>
<path d="M0 0 C22.47437496 -0.84631538 22.47437496 -0.84631538 31 4 C31.33 4.99 31.66 5.98 32 7 C31.3915625 6.79503906 30.783125 6.59007813 30.15625 6.37890625 C22.92222791 4.15550829 16.10357026 3.51670566 8.6015625 3.2109375 C5.6131955 3.03591384 2.90514518 2.68422338 0 2 C0 1.34 0 0.68 0 0 Z " fill="#DE9030" transform="translate(44,67)"/>
<path d="M0 0 C3.3 0 6.6 0 10 0 C7.88695652 8.45217391 7.88695652 8.45217391 4.875 10.3125 C3.946875 10.6528125 3.946875 10.6528125 3 11 C1.38935371 7.34920174 0.55105909 3.9492568 0 0 Z " fill="#E05828" transform="translate(52,48)"/>
<path d="M0 0 C4.51617599 -0.07654536 8.59085217 -0.10228696 13 1 C13 1.66 13 2.32 13 3 C6.25 3.125 6.25 3.125 4 2 C4.33 3.32 4.66 4.64 5 6 C4.34 6 3.68 6 3 6 C3.99 9.3 4.98 12.6 6 16 C5.34 16.66 4.68 17.32 4 18 C4 16.68 4 15.36 4 14 C3.34 14 2.68 14 2 14 C-0.29612756 4.58997722 -0.29612756 4.58997722 0 0 Z " fill="#ED8A0C" transform="translate(48,38)"/>
<path d="M0 0 C8.35740901 -0.32098157 15.22270481 -0.21819111 23 3 C23.33 2.34 23.66 1.68 24 1 C24.33 2.65 24.66 4.3 25 6 C16.56626517 4.70834692 8.2921591 3.00616752 0 1 C0 0.67 0 0.34 0 0 Z " fill="#FBCB20" transform="translate(81,92)"/>
<path d="M0 0 C2.543667 2.543667 3.23021995 4.50099979 4 8 C2.75 10.375 2.75 10.375 1 12 C0.34 12 -0.32 12 -1 12 C-0.67 13.98 -0.34 15.96 0 18 C-1.65 17.67 -3.3 17.34 -5 17 C-4.67 13.7 -4.34 10.4 -4 7 C-2.68 7 -1.36 7 0 7 C-0.185625 6.030625 -0.37125 5.06125 -0.5625 4.0625 C-0.706875 3.051875 -0.85125 2.04125 -1 1 C-0.67 0.67 -0.34 0.34 0 0 Z " fill="#E78C04" transform="translate(103,76)"/>
<path d="M0 0 C0.53625 0.825 1.0725 1.65 1.625 2.5 C3.89002495 4.85801717 5.11245497 5.01082522 8.44921875 5.33203125 C11.97750966 5.31419358 15.47845592 5.21443773 19 5 C19.33 5.99 19.66 6.98 20 8 C17.62543835 8.1963696 15.25079981 8.38231294 12.875 8.5625 C12.20984375 8.61857422 11.5446875 8.67464844 10.859375 8.73242188 C6.7271959 9.03625857 3.05304259 8.85227531 -1 8 C-1.625 5.6875 -1.625 5.6875 -2 3 C-1.34 2.01 -0.68 1.02 0 0 Z " fill="#F6A714" transform="translate(19,75)"/>
<path d="M0 0 C2.31 0.33 4.62 0.66 7 1 C7.33 3.64 7.66 6.28 8 9 C8.66 9 9.32 9 10 9 C9.67 10.32 9.34 11.64 9 13 C8.52949219 12.51789063 8.05898437 12.03578125 7.57421875 11.5390625 C6.95160156 10.90742187 6.32898438 10.27578125 5.6875 9.625 C5.07261719 8.99851562 4.45773438 8.37203125 3.82421875 7.7265625 C1.91187472 5.81913393 1.91187472 5.81913393 -1 4 C-0.67 2.68 -0.34 1.36 0 0 Z " fill="#A12E03" transform="translate(89,75)"/>
<path d="M0 0 C-2 3 -2 3 -4 5 C-2.16116119 7.28728734 -2.16116119 7.28728734 0.625 7.125 C1.40875 7.08375 2.1925 7.0425 3 7 C2.67 8.65 2.34 10.3 2 12 C0.35 12 -1.3 12 -3 12 C-3.67354499 10.56570999 -4.33859701 9.12742943 -5 7.6875 C-5.37125 6.88699219 -5.7425 6.08648437 -6.125 5.26171875 C-7 3 -7 3 -7 0 C-4.3333581 -1.33332095 -2.83319697 -0.67102033 0 0 Z " fill="#F08304" transform="translate(42,72)"/>
<path d="M0 0 C6.5705166 -0.24794402 12.56971459 0.67611771 19 2 C18.814375 3.03125 18.62875 4.0625 18.4375 5.125 C18.02692918 8.76148442 18.221691 11.45437009 19 15 C18.01 15.66 17.02 16.32 16 17 C16.020625 16.113125 16.04125 15.22625 16.0625 14.3125 C16.10448881 11.08292905 16.10448881 11.08292905 15.4375 8.3125 C15 6 15 6 16 3 C15.030625 3.04125 14.06125 3.0825 13.0625 3.125 C8.55110276 3.14348933 4.35162348 2.10517422 0 1 C0 0.67 0 0.34 0 0 Z " fill="#F3A820" transform="translate(92,46)"/>
<path d="M0 0 C2.20845985 0.31160461 4.41676251 0.62432346 6.625 0.9375 C7.85476562 1.11152344 9.08453125 1.28554688 10.3515625 1.46484375 C13.57556184 1.93774301 16.78812176 2.45151002 20 3 C20 3.33 20 3.66 20 4 C17.69 4.33 15.38 4.66 13 5 C13 5.33 13 5.66 13 6 C7.90551202 5.56826373 4.15487723 5.24599784 0 2 C0 1.34 0 0.68 0 0 Z " fill="#DA6D09" transform="translate(64,33)"/>
<path d="M0 0 C1.65 0.33 3.3 0.66 5 1 C4.67 2.65 4.34 4.3 4 6 C3.01 6 2.02 6 1 6 C0.67 8.64 0.34 11.28 0 14 C-0.33 14 -0.66 14 -1 14 C-1.33 11.69 -1.66 9.38 -2 7 C-2.66 7 -3.32 7 -4 7 C-4 6.34 -4 5.68 -4 5 C-3.01 5 -2.02 5 -1 5 C-0.67 3.35 -0.34 1.7 0 0 Z " fill="#FBDB36" transform="translate(84,51)"/>
<path d="M0 0 C0.66 0.33 1.32 0.66 2 1 C2 2.65 2 4.3 2 6 C0.68 6 -0.64 6 -2 6 C-2.33 7.32 -2.66 8.64 -3 10 C-3.66 8.68 -4.32 7.36 -5 6 C-5.66 6.99 -6.32 7.98 -7 9 C-7.6875 7.1875 -7.6875 7.1875 -8 5 C-6.875 3.25 -6.875 3.25 -5 2 C-2.3125 1.8125 -2.3125 1.8125 0 2 C0 1.34 0 0.68 0 0 Z " fill="#FBAA30" transform="translate(24,50)"/>
<path d="M0 0 C0.99 0 1.98 0 3 0 C3 1.32 3 2.64 3 4 C3.99 4 4.98 4 6 4 C6 7.96 6 11.92 6 16 C5.67 16 5.34 16 5 16 C4.67 13.69 4.34 11.38 4 9 C2.68 8.67 1.36 8.34 0 8 C0 5.36 0 2.72 0 0 Z " fill="#F39F41" transform="translate(40,44)"/>
<path d="M0 0 C7.42353883 -0.36509207 7.42353883 -0.36509207 9.875 1.1875 C12.32963831 5.14219506 13.26647966 8.33660599 13 13 C12.34 12.67 11.68 12.34 11 12 C10.375 8.9375 10.375 8.9375 10 6 C9.01 6 8.02 6 7 6 C7 4.35 7 2.7 7 1 C3.9254644 1.7763932 3.9254644 1.7763932 2 4 C1.34 2.68 0.68 1.36 0 0 Z " fill="#F39347" transform="translate(69,43)"/>
<path d="M0 0 C2.97 0.33 5.94 0.66 9 1 C7.84807997 4.4557601 7.08865366 5.19828537 4 7 C1.25 7.1875 1.25 7.1875 -1 7 C-0.67 4.69 -0.34 2.38 0 0 Z " fill="#F06E11" transform="translate(52,40)"/>
<path d="M0 0 C1.125 4.75 1.125 4.75 0 7 C-1.093125 6.979375 -2.18625 6.95875 -3.3125 6.9375 C-6.94384191 6.81455548 -6.94384191 6.81455548 -10 8 C-10.66 7.34 -11.32 6.68 -12 6 C-10.5459375 5.5978125 -10.5459375 5.5978125 -9.0625 5.1875 C-7.5465625 4.5996875 -7.5465625 4.5996875 -6 4 C-5.67 3.01 -5.34 2.02 -5 1 C-3 0 -3 0 0 0 Z " fill="#EB6E17" transform="translate(44,65)"/>
<path d="M0 0 C6.86515862 -0.26404456 13.25846717 0.74158054 20 2 C19.01 3.485 19.01 3.485 18 5 C13.27728349 5.54915308 9.44506325 4.42242024 5 3 C5 2.34 5 1.68 5 1 C3.35 1 1.7 1 0 1 C0 0.67 0 0.34 0 0 Z " fill="#FCD01B" transform="translate(32,33)"/>
<path d="M0 0 C1.65 0 3.3 0 5 0 C5 0.99 5 1.98 5 3 C6.32 3 7.64 3 9 3 C9 3.99 9 4.98 9 6 C8.071875 6.12375 8.071875 6.12375 7.125 6.25 C4.46510021 6.91214206 4.46510021 6.91214206 3 11 C2.01 7.37 1.02 3.74 0 0 Z " fill="#E77B07" transform="translate(79,45)"/>
<path d="M0 0 C0.33 1.32 0.66 2.64 1 4 C2.32 4 3.64 4 5 4 C5.20086443 7.71599191 5.1519437 8.77208445 3 12 C2.01 12 1.02 12 0 12 C0 8.04 0 4.08 0 0 Z " fill="#FCEB27" transform="translate(47,52)"/>
<path d="M0 0 C2.31 0.33 4.62 0.66 7 1 C7 1.99 7 2.98 7 4 C10.3 3.67 13.6 3.34 17 3 C17 3.99 17 4.98 17 6 C10.07 5.505 10.07 5.505 3 5 C3 4.34 3 3.68 3 3 C2.01 2.67 1.02 2.34 0 2 C0 1.34 0 0.68 0 0 Z " fill="#FAA533" transform="translate(81,87)"/>
<path d="M0 0 C0.33 1.32 0.66 2.64 1 4 C1.66 4 2.32 4 3 4 C3.25 6.25 3.25 6.25 3 9 C1 11.3125 1 11.3125 -1 13 C-2 5.375 -2 5.375 -2 2 C-1.34 1.34 -0.68 0.68 0 0 Z " fill="#FAA633" transform="translate(105,64)"/>
<path d="M0 0 C0.33 0.99 0.66 1.98 1 3 C0.67 3.66 0.34 4.32 0 5 C2.31 5.33 4.62 5.66 7 6 C7 6.33 7 6.66 7 7 C3.7 7.33 0.4 7.66 -3 8 C-3.66 6.68 -4.32 5.36 -5 4 C-4.34 4 -3.68 4 -3 4 C-2.67 3.34 -2.34 2.68 -2 2 C-1.34 1.34 -0.68 0.68 0 0 Z " fill="#E57B01" transform="translate(42,72)"/>
<path d="M0 0 C1.32087692 2.17556199 2.07112439 3.43100487 1.75 6 C0.96713323 8.08764473 0.05252193 10.03529239 -1 12 C-0.34 12.33 0.32 12.66 1 13 C-0.65 13.33 -2.3 13.66 -4 14 C-4 10.12140756 -2.54934939 7.53251661 -1 4 C-0.62691369 2.67723944 -0.26953585 1.34767923 0 0 Z " fill="#FABA1B" transform="translate(18,68)"/>
<path d="M0 0 C1.2065625 0.0309375 1.2065625 0.0309375 2.4375 0.0625 C2.4375 0.7225 2.4375 1.3825 2.4375 2.0625 C4.4175 2.0625 6.3975 2.0625 8.4375 2.0625 C8.4375 2.3925 8.4375 2.7225 8.4375 3.0625 C6.1275 3.0625 3.8175 3.0625 1.4375 3.0625 C1.4375 4.0525 1.4375 5.0425 1.4375 6.0625 C0.4475 6.3925 -0.5425 6.7225 -1.5625 7.0625 C-2.2225 5.0825 -2.8825 3.1025 -3.5625 1.0625 C-2.5625 0.0625 -2.5625 0.0625 0 0 Z " fill="#FBA931" transform="translate(34.5625,33.9375)"/>
<path d="M0 0 C0.99 0 1.98 0 3 0 C3.33 0.66 3.66 1.32 4 2 C6.30965848 3.05352843 8.6429774 4.05719096 11 5 C7.51580866 6.16691444 4.89777213 5.85285758 1.3125 5.1875 C0.33925781 5.01605469 -0.63398437 4.84460937 -1.63671875 4.66796875 C-2.80654297 4.33732422 -2.80654297 4.33732422 -4 4 C-4.33 3.34 -4.66 2.68 -5 2 C-3.35 2 -1.7 2 0 2 C0 1.34 0 0.68 0 0 Z " fill="#DE7F01" transform="translate(61,33)"/>
<path d="M0 0 C11.26482946 0.8311913 11.26482946 0.8311913 15 3 C15.33 3.99 15.66 4.98 16 6 C14.26982492 5.54548816 12.54090123 5.08621143 10.8125 4.625 C9.84957031 4.36976562 8.88664062 4.11453125 7.89453125 3.8515625 C5.17789793 3.05233704 2.60862825 2.0968638 0 1 C0 0.67 0 0.34 0 0 Z " fill="#C56109" transform="translate(60,68)"/>
<path d="M0 0 C4.62 0 9.24 0 14 0 C14 0.66 14 1.32 14 2 C15.32 2.33 16.64 2.66 18 3 C11.71739294 3.23268915 6.11980533 2.40454548 0 1 C0 0.67 0 0.34 0 0 Z " fill="#EB9934" transform="translate(50,85)"/>
<path d="M0 0 C0.66 0 1.32 0 2 0 C2.33 1.65 2.66 3.3 3 5 C2.360625 5.20625 1.72125 5.4125 1.0625 5.625 C-1.34925077 6.89538209 -1.34925077 6.89538209 -1.75 10.125 C-1.8325 11.07375 -1.915 12.0225 -2 13 C-2.66 13 -3.32 13 -4 13 C-4.25 10.25 -4.25 10.25 -4 7 C-2 4.8125 -2 4.8125 0 3 C0 2.01 0 1.02 0 0 Z " fill="#D76B00" transform="translate(109,82)"/>
<path d="M0 0 C1.65 0.33 3.3 0.66 5 1 C4.01 2.485 4.01 2.485 3 4 C2.61500109 5.65549531 2.27206865 7.3222433 2 9 C1.01 8.67 0.02 8.34 -1 8 C-0.67 5.36 -0.34 2.72 0 0 Z " fill="#F38013" transform="translate(99,83)"/>
<path d="M0 0 C2.64 0 5.28 0 8 0 C8 0.66 8 1.32 8 2 C10.64 2 13.28 2 16 2 C16 2.33 16 2.66 16 3 C11.05 3.33 6.1 3.66 1 4 C0.67 2.68 0.34 1.36 0 0 Z " fill="#FBD73F" transform="translate(44,64)"/>
<path d="M0 0 C0.66 0 1.32 0 2 0 C2.103125 0.639375 2.20625 1.27875 2.3125 1.9375 C2.6528125 2.9584375 2.6528125 2.9584375 3 4 C3.99 4.33 4.98 4.66 6 5 C5.15695313 5.13277344 4.31390625 5.26554687 3.4453125 5.40234375 C2.34960938 5.57894531 1.25390625 5.75554688 0.125 5.9375 C-1.51082031 6.19853516 -1.51082031 6.19853516 -3.1796875 6.46484375 C-5.93821546 6.85551159 -5.93821546 6.85551159 -8 8 C-8 7.01 -8 6.02 -8 5 C-5.36 4.67 -2.72 4.34 0 4 C0 2.68 0 1.36 0 0 Z " fill="#F57B17" transform="translate(36,51)"/>
<path d="M0 0 C5.77807024 -0.2358396 10.51324804 0.13216954 16 2 C16 2.33 16 2.66 16 3 C10.21101581 3.20674944 5.57067277 2.59162079 0 1 C0 0.67 0 0.34 0 0 Z " fill="#EA8F02" transform="translate(68,88)"/>
<path d="M0 0 C2.875 -0.1875 2.875 -0.1875 6 0 C8 3 8 3 8 6 C6.68 6 5.36 6 4 6 C3.67 4.68 3.34 3.36 3 2 C2.01 2 1.02 2 0 2 C0 1.34 0 0.68 0 0 Z " fill="#F38657" transform="translate(60,81)"/>
<path d="M0 0 C2.475 0.495 2.475 0.495 5 1 C4.34 2.98 3.68 4.96 3 7 C3.99 7.33 4.98 7.66 6 8 C4.35 8.66 2.7 9.32 1 10 C1.33 7.69 1.66 5.38 2 3 C1.34 3 0.68 3 0 3 C0 2.01 0 1.02 0 0 Z " fill="#FEA54B" transform="translate(21,69)"/>
<path d="M0 0 C0.33 0.99 0.66 1.98 1 3 C0.34 3 -0.32 3 -1 3 C-1.33 5.64 -1.66 8.28 -2 11 C-2.33 11 -2.66 11 -3 11 C-3.66 7.7 -4.32 4.4 -5 1 C-3.35 0.67 -1.7 0.34 0 0 Z " fill="#F2A414" transform="translate(19,65)"/>
<path d="M0 0 C0 2.97 0 5.94 0 9 C-0.99 9.495 -0.99 9.495 -2 10 C-2.12375 9.030625 -2.2475 8.06125 -2.375 7.0625 C-2.58125 6.051875 -2.7875 5.04125 -3 4 C-3.66 3.67 -4.32 3.34 -5 3 C-5 2.34 -5 1.68 -5 1 C-3 0 -3 0 0 0 Z " fill="#A53801" transform="translate(45,55)"/>
<path d="M0 0 C2.31 0.66 4.62 1.32 7 2 C7 1.34 7 0.68 7 0 C7.66 0.33 8.32 0.66 9 1 C8.34 3.31 7.68 5.62 7 8 C5.66666667 6.66666667 4.33333333 5.33333333 3 4 C2.4225 3.443125 1.845 2.88625 1.25 2.3125 C0 1 0 1 0 0 Z " fill="#E59638" transform="translate(75,72)"/>
<path d="M0 0 C-2 3 -2 3 -5 4 C-5.33 4.66 -5.66 5.32 -6 6 C-6.33 4.02 -6.66 2.04 -7 0 C-4.3333581 -1.33332095 -2.83319697 -0.67102033 0 0 Z " fill="#F37B0C" transform="translate(42,72)"/>
<path d="M0 0 C0 1.32 0 2.64 0 4 C-2.31 4.66 -4.62 5.32 -7 6 C-6.67 4.35 -6.34 2.7 -6 1 C-3.92446352 0.4465236 -2.15634036 0 0 0 Z " fill="#A42A00" transform="translate(38,66)"/>
<path d="M0 0 C1.32 0.33 2.64 0.66 4 1 C4.33 2.65 4.66 4.3 5 6 C3.68 6 2.36 6 1 6 C0.67 4.02 0.34 2.04 0 0 Z " fill="#EF7A09" transform="translate(76,83)"/>
<path d="M0 0 C3.3 0.33 6.6 0.66 10 1 C9.67 1.66 9.34 2.32 9 3 C5.37 3 1.74 3 -2 3 C-1.34 2.01 -0.68 1.02 0 0 Z " fill="#DF5900" transform="translate(41,88)"/>
<path d="M0 0 C9.41002278 -0.3690205 9.41002278 -0.3690205 14 2 C14 2.33 14 2.66 14 3 C12.22844346 2.88570603 10.45773771 2.75816963 8.6875 2.625 C7.70136719 2.55539063 6.71523437 2.48578125 5.69921875 2.4140625 C3 2 3 2 0 0 Z " fill="#FEE326" transform="translate(81,92)"/>
<path d="M0 0 C4.455 0.99 4.455 0.99 9 2 C6 4 6 4 4 4 C3.67 4.66 3.34 5.32 3 6 C2.01 4.02 1.02 2.04 0 0 Z " fill="#D36514" transform="translate(65,80)"/>
<path d="M0 0 C3.3 0 6.6 0 10 0 C10 1.32 10 2.64 10 4 C6.44219804 3.39009109 3.3171411 2.4216319 0 1 C0 0.67 0 0.34 0 0 Z " fill="#FACE3F" transform="translate(72,70)"/>
<path d="M0 0 C0 2.64 0 5.28 0 8 C-0.66 8 -1.32 8 -2 8 C-2 7.01 -2 6.02 -2 5 C-2.99 4.67 -3.98 4.34 -5 4 C-1.125 0 -1.125 0 0 0 Z " fill="#FCF645" transform="translate(64,52)"/>
<path d="M0 0 C0.33 0 0.66 0 1 0 C1 1.98 1 3.96 1 6 C1.66 6 2.32 6 3 6 C3 7.32 3 8.64 3 10 C1.68 10 0.36 10 -1 10 C-0.67 6.7 -0.34 3.4 0 0 Z " fill="#FBE141" transform="translate(49,46)"/>
<path d="M0 0 C1.65 0 3.3 0 5 0 C4.625 2.4375 4.625 2.4375 4 5 C3.01 5.495 3.01 5.495 2 6 C1.34 4.02 0.68 2.04 0 0 Z " fill="#F07414" transform="translate(79,45)"/>
<path d="M0 0 C2.97 0 5.94 0 9 0 C8.01 1.485 8.01 1.485 7 3 C3.875 3.1875 3.875 3.1875 1 3 C0.67 2.01 0.34 1.02 0 0 Z " fill="#FAC620" transform="translate(43,35)"/>
<path d="M0 0 C2.97 0.495 2.97 0.495 6 1 C5.67 1.99 5.34 2.98 5 4 C2.9375 4.6875 2.9375 4.6875 1 5 C0.67 3.35 0.34 1.7 0 0 Z " fill="#A53706" transform="translate(71,57)"/>
<path d="M0 0 C2.64 0 5.28 0 8 0 C6.8125 1.5 6.8125 1.5 5 3 C2.3125 3.1875 2.3125 3.1875 0 3 C0 2.01 0 1.02 0 0 Z " fill="#E46A02" transform="translate(24,27)"/>
<path d="M0 0 C1.5625 1.8125 1.5625 1.8125 3 4 C2.67 4.99 2.34 5.98 2 7 C-1 5 -1 5 -1.6875 2.875 C-1.790625 2.25625 -1.89375 1.6375 -2 1 C-1.34 0.67 -0.68 0.34 0 0 Z " fill="#FBB81B" transform="translate(107,79)"/>
<path d="M0 0 C1.65 0.33 3.3 0.66 5 1 C4.01 1.495 4.01 1.495 3 2 C3 2.66 3 3.32 3 4 C1.68 4 0.36 4 -1 4 C-0.67 2.68 -0.34 1.36 0 0 Z " fill="#F4700F" transform="translate(45,79)"/>
<path d="M0 0 C0.33 0 0.66 0 1 0 C1.25 2.25 1.25 2.25 1 5 C-1 7.3125 -1 7.3125 -3 9 C-3.33 7.35 -3.66 5.7 -4 4 C-3.34 3.67 -2.68 3.34 -2 3 C-1.34 3.33 -0.68 3.66 0 4 C0 2.68 0 1.36 0 0 Z " fill="#F6A824" transform="translate(107,68)"/>
<path d="M0 0 C0 0.99 0 1.98 0 3 C-1.98 3.99 -1.98 3.99 -4 5 C-4.66 3.68 -5.32 2.36 -6 1 C-4.02 0.67 -2.04 0.34 0 0 Z " fill="#A84301" transform="translate(59,54)"/>
<path d="M0 0 C2.3773161 2.3773161 2.67028521 3.70285207 3 7 C2.34 7.66 1.68 8.32 1 9 C1 7.68 1 6.36 1 5 C0.34 5 -0.32 5 -1 5 C-0.67 3.35 -0.34 1.7 0 0 Z " fill="#F28E4B" transform="translate(51,47)"/>
<path d="M0 0 C-3.90028225 2.60018816 -7.47434569 2.15085514 -12 2 C-8.15820154 -2.0018734 -5.05897886 -0.92747946 0 0 Z " fill="#F7C512" transform="translate(104,44)"/>
<path d="M0 0 C0.99 0.99 1.98 1.98 3 3 C-0.57644848 4.2380014 -3.33694766 3.74926071 -7 3 C-7 2.67 -7 2.34 -7 2 C-4.69 1.34 -2.38 0.68 0 0 Z " fill="#D8600E" transform="translate(51,89)"/>
<path d="M0 0 C0.99 0 1.98 0 3 0 C3 1.65 3 3.3 3 5 C1.35 5 -0.3 5 -2 5 C-1.34 4.67 -0.68 4.34 0 4 C0 2.68 0 1.36 0 0 Z " fill="#FAE72B" transform="translate(76,78)"/>
<path d="M0 0 C2.125 0.9375 2.125 0.9375 4 2 C1.69 3.32 -0.62 4.64 -3 6 C-2.625 3.5625 -2.625 3.5625 -2 1 C-1.34 0.67 -0.68 0.34 0 0 Z " fill="#A13906" transform="translate(27,70)"/>
<path d="M0 0 C0 0.99 0 1.98 0 3 C-2.31 3.33 -4.62 3.66 -7 4 C-3.375 0 -3.375 0 0 0 Z " fill="#9E3704" transform="translate(28,65)"/>
<path d="M0 0 C1.65 0.33 3.3 0.66 5 1 C4.67 2.32 4.34 3.64 4 5 C4 4.01 4 3.02 4 2 C0.9254644 2.7763932 0.9254644 2.7763932 -1 5 C-0.67 3.35 -0.34 1.7 0 0 Z " fill="#FDC72E" transform="translate(84,51)"/>
</svg>
