<?xml version="1.0" encoding="UTF-8"?>
<svg version="1.1" xmlns="http://www.w3.org/2000/svg" width="128" height="128">
<path d="M0 0 C2.9508032 2.17784944 3.72802451 4.21768844 5.01953125 7.62890625 C5.43847656 8.70140625 5.85742188 9.77390625 6.2890625 10.87890625 C7.20703125 13.62890625 7.20703125 13.62890625 7.20703125 15.62890625 C7.74328125 15.37496094 8.27953125 15.12101562 8.83203125 14.859375 C14.29512351 12.46028679 19.6824301 10.93794826 25.51953125 9.81640625 C26.20080078 9.68065186 26.88207031 9.54489746 27.58398438 9.4050293 C33.38756991 8.35858633 36.45741722 8.44012147 41.36328125 11.7734375 C42.48504201 12.65368977 43.59950607 13.54330869 44.70703125 14.44140625 C45.54041016 15.09979492 45.54041016 15.09979492 46.390625 15.77148438 C47.48984428 16.6418074 48.58205915 17.52105723 49.66674805 18.40942383 C51.03720793 19.49445269 52.4877109 20.47660291 53.9453125 21.44140625 C57.12675706 24.51845107 57.84447307 27.59647093 58.89453125 31.81640625 C59.10601807 32.61304688 59.31750488 33.4096875 59.53540039 34.23046875 C61.0445092 40.20321359 61.79528507 46.08674893 62.32446289 52.21142578 C62.97861721 58.61603563 64.87631167 64.39600191 67.17553711 70.390625 C69.04153165 75.39585379 69.46647172 79.28217659 69.20703125 84.62890625 C69.20703125 85.84578125 69.20703125 87.06265625 69.20703125 88.31640625 C67.94573007 92.49446639 66.53331933 93.3928124 62.8046875 95.4296875 C49.37641236 101.62890625 49.37641236 101.62890625 44.20703125 101.62890625 C44.20703125 102.61890625 44.20703125 103.60890625 44.20703125 104.62890625 C42.88703125 104.62890625 41.56703125 104.62890625 40.20703125 104.62890625 C40.20703125 103.30890625 40.20703125 101.98890625 40.20703125 100.62890625 C38.97339844 100.7371875 38.97339844 100.7371875 37.71484375 100.84765625 C26.5059345 101.7795748 16.97705668 102.4013471 6.20703125 98.62890625 C5.20703125 97.62890625 5.20703125 97.62890625 5.01953125 93.69140625 C5.10128589 88.58991646 5.37816173 83.43543267 7.20703125 78.62890625 C9.83203125 77.00390625 9.83203125 77.00390625 12.20703125 76.62890625 C11.10451334 74.98075402 11.10451334 74.98075402 9.20703125 73.62890625 C6.22363726 73.48359231 6.22363726 73.48359231 3.01953125 73.94140625 C1.93285156 74.06128906 0.84617187 74.18117188 -0.2734375 74.3046875 C-1.52060547 74.46517578 -1.52060547 74.46517578 -2.79296875 74.62890625 C-2.77234375 75.80453125 -2.75171875 76.98015625 -2.73046875 78.19140625 C-2.75131665 82.1038615 -2.87498134 85.80395869 -3.79296875 89.62890625 C-5.60546875 91.12890625 -5.60546875 91.12890625 -7.79296875 91.62890625 C-11.32969471 91.13931815 -13.1414659 89.71059304 -15.73046875 87.31640625 C-17.90575851 85.32275102 -19.98441132 83.49420863 -22.40234375 81.79296875 C-27.76120411 76.94197424 -28.58282839 68.5971388 -29.07421875 61.65625 C-29.1037872 57.96389025 -28.99513247 54.31516803 -28.79296875 50.62890625 C-28.77943359 49.42041016 -28.77943359 49.42041016 -28.765625 48.1875 C-28.48275904 42.4057197 -25.44005428 38.82249695 -21.79296875 34.62890625 C-22.53546875 33.66984375 -22.53546875 33.66984375 -23.29296875 32.69140625 C-25.86701909 27.43605346 -25.13918118 22.5173377 -24.10546875 16.87890625 C-21.520766 10.47868992 -15.9755796 7.15160989 -10.29296875 3.69140625 C-9.64199219 3.26794922 -8.99101563 2.84449219 -8.3203125 2.40820312 C-5.36829969 0.6041953 -3.49059531 -0.46378539 0 0 Z " fill="#5C8FB0" transform="translate(43.79296875,11.37109375)"/>
<path d="M0 0 C0.3403125 1.794375 0.3403125 1.794375 0.6875 3.625 C1.7948776 8.16767308 3.80831111 10.64032749 7 14 C10.38320643 13.39854108 12.25619363 12.18759729 14.875 10 C18.34056408 7.34200774 20.53692961 6.17502237 25 6 C25.79019531 5.88140625 26.58039063 5.7628125 27.39453125 5.640625 C35.14691881 4.88645854 39.53563709 7.55127291 45.44921875 12.4140625 C50.08904239 17.11783471 52 21.43277654 52 28 C52.66 28 53.32 28 54 28 C54.0501123 28.59949463 54.10022461 29.19898926 54.15185547 29.81665039 C54.38575757 32.56592826 54.63029759 35.31416322 54.875 38.0625 C54.95363281 39.00544922 55.03226562 39.94839844 55.11328125 40.91992188 C55.59279269 46.21299046 56.46104124 50.92402258 58 56 C58 57.32 58 58.64 58 60 C54.38026598 61.31626692 51.90432869 62 48 62 C48 62.66 48 63.32 48 64 C41.73 63.67 35.46 63.34 29 63 C29.2475 60.999375 29.495 58.99875 29.75 56.9375 C30.2571694 50.72298432 29.57684613 47.98590673 26 43 C26 42.01 26 41.02 26 40 C25.34 40 24.68 40 24 40 C24 38.68 24 37.36 24 36 C22.68 36 21.36 36 20 36 C20 35.34 20 34.68 20 34 C17.31026414 34.06051149 14.62571222 34.14771897 11.9375 34.25 C10.80924805 34.27126953 10.80924805 34.27126953 9.65820312 34.29296875 C4.03875914 34.53623472 0.642941 35.79472094 -4 39 C-4.721875 39.9075 -5.44375 40.815 -6.1875 41.75 C-6.785625 42.4925 -7.38375 43.235 -8 44 C-9.32 44 -10.64 44 -12 44 C-13.38554242 38.98621513 -14.14334325 34.13057194 -13 29 C-9.38427285 24.66566599 -5.43476592 22.35869148 0 21 C0 16.71 0 12.42 0 8 C-1.32 8 -2.64 8 -4 8 C-4 6.68 -4 5.36 -4 4 C-4.66 4 -5.32 4 -6 4 C-5.67 3.01 -5.34 2.02 -5 1 C-3 0 -3 0 0 0 Z " fill="#E9AE54" transform="translate(40,28)"/>
<path d="M0 0 C3.33049122 1.42630308 5.31738937 3.15014396 7.6875 5.875 C8.28949219 6.55304687 8.89148438 7.23109375 9.51171875 7.9296875 C11.00766194 10.01065834 11.5789756 11.49630826 12 14 C10.865625 14.28875 9.73125 14.5775 8.5625 14.875 C7.386875 15.24625 6.21125 15.6175 5 16 C4.67 16.66 4.34 17.32 4 18 C10.11330766 19.19986194 10.11330766 19.19986194 15.9375 17.5625 C16.618125 17.046875 17.29875 16.53125 18 16 C18.66 16 19.32 16 20 16 C20 14.02 20 12.04 20 10 C20.33 10 20.66 10 21 10 C21.08131463 11.43655854 21.13933559 12.8744483 21.1875 14.3125 C21.23970703 15.51326172 21.23970703 15.51326172 21.29296875 16.73828125 C21 19 21 19 19.8125 20.62109375 C18 22 18 22 15.51953125 23.296875 C12.43174224 24.95438945 10.30489205 26.33855006 8 29 C7.11668547 34.1359186 7.40292949 38.84529128 8 44 C9.09441406 44.14308594 10.18882813 44.28617188 11.31640625 44.43359375 C14.55115117 44.93098295 17.0427523 45.6557965 20 47 C20 46.34 20 45.68 20 45 C25.57067277 43.40837921 30.21101581 42.79325056 36 43 C36 43.66 36 44.32 36 45 C36.639375 45.309375 37.27875 45.61875 37.9375 45.9375 C40 47 40 47 41 48 C41.47524752 55.36633663 41.47524752 55.36633663 39.5 58 C39.005 58.33 38.51 58.66 38 59 C37.30519531 58.66226563 36.61039063 58.32453125 35.89453125 57.9765625 C32.51784121 56.83732834 30.21313025 56.9875681 26.6875 57.375 C25.61886719 57.48585937 24.55023438 57.59671875 23.44921875 57.7109375 C22.64097656 57.80632812 21.83273438 57.90171875 21 58 C21.020625 59.175625 21.04125 60.35125 21.0625 61.5625 C21.0416521 65.47495525 20.91798741 69.17505244 20 73 C18.1875 74.5 18.1875 74.5 16 75 C12.46327404 74.5104119 10.65150285 73.08168679 8.0625 70.6875 C5.88721024 68.69384477 3.80855743 66.86530238 1.390625 65.1640625 C-3.96823536 60.31306799 -4.78985964 51.96823255 -5.28125 45.02734375 C-5.31081845 41.334984 -5.20216372 37.68626178 -5 34 C-4.98646484 32.79150391 -4.98646484 32.79150391 -4.97265625 31.55859375 C-4.68979029 25.77681345 -1.64708553 22.1935907 2 18 C1.505 17.360625 1.01 16.72125 0.5 16.0625 C-2.03978472 10.87710619 -1.54060872 5.47910037 0 0 Z " fill="#5289A9" transform="translate(20,28)"/>
<path d="M0 0 C0.3403125 1.794375 0.3403125 1.794375 0.6875 3.625 C1.7948776 8.16767308 3.80831111 10.64032749 7 14 C10.38320643 13.39854108 12.25619363 12.18759729 14.875 10 C18.34056408 7.34200774 20.53692961 6.17502237 25 6 C25.79019531 5.88140625 26.58039063 5.7628125 27.39453125 5.640625 C35.14691881 4.88645854 39.53563709 7.55127291 45.44921875 12.4140625 C50.08904239 17.11783471 52 21.43277654 52 28 C52.66 28 53.32 28 54 28 C54 29.32 54 30.64 54 32 C30.21122564 32.61916858 30.21122564 32.61916858 20 29 C20 28.34 20 27.68 20 27 C18.68 26.67 17.36 26.34 16 26 C16 25.34 16 24.68 16 24 C14.948125 23.9071875 14.948125 23.9071875 13.875 23.8125 C9.9667267 22.70798798 7.99642752 20.71769008 5 18 C4.67 18.66 4.34 19.32 4 20 C2.68 19.67 1.36 19.34 0 19 C0 15.37 0 11.74 0 8 C-1.32 8 -2.64 8 -4 8 C-4 6.68 -4 5.36 -4 4 C-4.66 4 -5.32 4 -6 4 C-5.67 3.01 -5.34 2.02 -5 1 C-3 0 -3 0 0 0 Z " fill="#E29848" transform="translate(40,28)"/>
<path d="M0 0 C1.19783577 10.43115315 1.19783577 10.43115315 -1.32421875 13.734375 C-3.49003812 15.13284956 -5.59436508 16.06487189 -8 17 C-9.09570312 17.46148437 -10.19140625 17.92296875 -11.3203125 18.3984375 C-20.21477901 22 -20.21477901 22 -24 22 C-24 22.99 -24 23.98 -24 25 C-25.32 25 -26.64 25 -28 25 C-28 23.68 -28 22.36 -28 21 C-28.82242188 21.0721875 -29.64484375 21.144375 -30.4921875 21.21875 C-41.70109675 22.15066855 -51.22997457 22.77244085 -62 19 C-63 18 -63 18 -63.1328125 16.07421875 C-63.13023438 15.28660156 -63.12765625 14.49898437 -63.125 13.6875 C-63.12757812 12.90761719 -63.13015625 12.12773438 -63.1328125 11.32421875 C-63.00499912 9.08748461 -62.61913869 7.14733021 -62 5 C-58.43114713 5.43700239 -55.11817967 5.96337177 -51.67822266 7.02954102 C-45.59787392 8.6337748 -39.61908219 8.13664884 -33.375 7.9375 C-32.08464844 7.92267578 -30.79429688 7.90785156 -29.46484375 7.89257812 C-19.54054401 7.59774747 -11.5407593 5.30093745 -2.70068359 0.83959961 C-1 0 -1 0 0 0 Z " fill="#235576" transform="translate(112,91)"/>
<path d="M0 0 C1.13598633 0.00483398 1.13598633 0.00483398 2.29492188 0.00976562 C3.47344727 0.02233398 3.47344727 0.02233398 4.67578125 0.03515625 C5.47306641 0.03966797 6.27035156 0.04417969 7.09179688 0.04882812 C9.05732382 0.06059775 11.0228121 0.07853277 12.98828125 0.09765625 C12.98828125 0.75765625 12.98828125 1.41765625 12.98828125 2.09765625 C14.30828125 2.09765625 15.62828125 2.09765625 16.98828125 2.09765625 C16.98828125 3.41765625 16.98828125 4.73765625 16.98828125 6.09765625 C17.64828125 6.09765625 18.30828125 6.09765625 18.98828125 6.09765625 C23.27107917 13.06276013 24.85127873 18.03945285 22.98828125 26.09765625 C22.49328125 27.58265625 22.49328125 27.58265625 21.98828125 29.09765625 C23.15746094 29.02804688 24.32664063 28.9584375 25.53125 28.88671875 C27.07936946 28.8304235 28.62755127 28.77582523 30.17578125 28.72265625 C30.94470703 28.67238281 31.71363281 28.62210938 32.50585938 28.5703125 C38.24852664 28.42243266 38.24852664 28.42243266 40.4855957 30.46435547 C40.89898193 31.01365723 41.31236816 31.56295898 41.73828125 32.12890625 C43.62435461 35.33588209 43.62435461 35.33588209 46.4453125 35.46484375 C47.22261719 35.30242187 47.99992187 35.14 48.80078125 34.97265625 C49.59097656 34.82570312 50.38117188 34.67875 51.1953125 34.52734375 C51.78699219 34.38554688 52.37867187 34.24375 52.98828125 34.09765625 C48.41946817 38.66646933 40.71400005 37.56795064 34.63818359 37.82006836 C32.65367441 37.90835916 30.67049997 38.02517663 28.6875 38.14257812 C19.24479354 38.53405896 11.82398241 37.19710417 2.98828125 34.09765625 C3.72998047 28.29980469 3.72998047 28.29980469 6.0546875 26.48046875 C6.87839844 26.06539062 7.70210937 25.6503125 8.55078125 25.22265625 C11.91389211 23.29307319 11.91389211 23.29307319 13.72265625 20.046875 C13.89879698 17.60943486 13.89879698 17.60943486 12.98828125 14.09765625 C11.10750252 12.18508913 11.10750252 12.18508913 8.98828125 11.09765625 C8.98828125 10.43765625 8.98828125 9.77765625 8.98828125 9.09765625 C3.70828125 9.75765625 -1.57171875 10.41765625 -7.01171875 11.09765625 C-7.01171875 11.75765625 -7.01171875 12.41765625 -7.01171875 13.09765625 C-9.77448052 12.57497159 -12.33780635 11.98896038 -15.01171875 11.09765625 C-14.44907917 7.59256374 -13.35986693 6.14497617 -10.63671875 3.91015625 C-10.03085937 3.40097656 -9.425 2.89179687 -8.80078125 2.3671875 C-5.91776076 0.32137601 -3.42855601 -0.02577862 0 0 Z " fill="#4C83A3" transform="translate(47.01171875,61.90234375)"/>
<path d="M0 0 C3.96930989 -0.02465881 7.93859034 -0.04284023 11.90795898 -0.05493164 C13.25920386 -0.05997057 14.61044326 -0.06680177 15.96166992 -0.07543945 C17.90020434 -0.08752419 19.838778 -0.09269828 21.77734375 -0.09765625 C23.52905884 -0.10551147 23.52905884 -0.10551147 25.31616211 -0.11352539 C28 0 28 0 29 1 C29.37632556 3.05509037 29.70093601 5.11975289 30 7.1875 C30.6259547 11.4664872 31.27539739 15.73648998 32 20 C28.38026598 21.31626692 25.90432869 22 22 22 C22 22.66 22 23.32 22 24 C15.73 23.67 9.46 23.34 3 23 C3.2475 20.999375 3.495 18.99875 3.75 16.9375 C4.2571694 10.72298432 3.57684613 7.98590673 0 3 C0 2.01 0 1.02 0 0 Z " fill="#EBCB80" transform="translate(66,68)"/>
<path d="M0 0 C0.31453125 0.91523438 0.6290625 1.83046875 0.953125 2.7734375 C1.38109375 3.96195313 1.8090625 5.15046875 2.25 6.375 C2.66765625 7.55835938 3.0853125 8.74171875 3.515625 9.9609375 C4.75504589 13.00163404 4.75504589 13.00163404 6.87109375 14.62109375 C9.1165564 15.25560665 9.1165564 15.25560665 11.26953125 13.69921875 C12.10871094 13.03535156 12.94789062 12.37148438 13.8125 11.6875 C20.57405173 7.14669824 26.92445504 5.95938132 35 7 C44.40399886 10.97558275 50.10742677 17.04505154 53.9152832 26.37353516 C56.35444536 32.93842345 56.95169327 39.54557241 57.33056641 46.50170898 C57.6387646 51.75061537 58.49038765 56.17158755 60.37231445 61.09423828 C61 63 61 63 61 66 C59.68 66.33 58.36 66.66 57 67 C51.13920658 57.67601048 51.68689519 45.62816884 52 35 C51.34 35 50.68 35 50 35 C49.65001953 33.7315625 49.65001953 33.7315625 49.29296875 32.4375 C46.76804494 24.58614683 43.99342372 19.82395724 36.9765625 15.33203125 C30.92713845 12.62487429 25.65161337 13.55057401 19.3125 14.625 C15.57266842 16.17738292 12.93316408 18.21291026 9.89453125 20.85546875 C8 22 8 22 5.9296875 21.859375 C2.22708396 20.21044225 -0.22075868 16.55848263 -2 13 C-2.039992 11.00039988 -2.04346799 8.99952758 -2 7 C-4.31 7.66 -6.62 8.32 -9 9 C-9.66 8.01 -10.32 7.02 -11 6 C-9.54550599 4.9944239 -8.08627557 3.99569565 -6.625 3 C-5.40683594 2.1646875 -5.40683594 2.1646875 -4.1640625 1.3125 C-2 0 -2 0 0 0 Z " fill="#1F4B62" transform="translate(42,21)"/>
<path d="M0 0 C0.07476562 0.94617187 0.14953125 1.89234375 0.2265625 2.8671875 C1.05425089 11.63305799 2.82197908 19.46675272 5.96728516 27.70654297 C7.81570484 32.70378384 8.27627447 36.66670145 8 42 C7.34 40.68 6.68 39.36 6 38 C4.9275 38.61875 3.855 39.2375 2.75 39.875 C-2.57278097 42.57468388 -8.13348782 43.25690846 -14 44 C-16.0625 41.6875 -16.0625 41.6875 -18 39 C-17.67 38.01 -17.34 37.02 -17 36 C-16.28972656 35.87882812 -15.57945313 35.75765625 -14.84765625 35.6328125 C-13.46900391 35.38144531 -13.46900391 35.38144531 -12.0625 35.125 C-10.68771484 34.88136719 -10.68771484 34.88136719 -9.28515625 34.6328125 C-8.53105469 34.42398438 -7.77695313 34.21515625 -7 34 C-6.67 33.34 -6.34 32.68 -6 32 C-4.68 32.33 -3.36 32.66 -2 33 C-2.41572266 31.82244141 -2.41572266 31.82244141 -2.83984375 30.62109375 C-5.73936396 22.21145328 -7.15569317 14.87451097 -7 6 C-6.34 6 -5.68 6 -5 6 C-5 4.68 -5 3.36 -5 2 C-2 0 -2 0 0 0 Z " fill="#5B8FAF" transform="translate(105,54)"/>
<path d="M0 0 C1.13598633 0.00483398 1.13598633 0.00483398 2.29492188 0.00976562 C3.47344727 0.02233398 3.47344727 0.02233398 4.67578125 0.03515625 C5.47306641 0.03966797 6.27035156 0.04417969 7.09179688 0.04882812 C9.05732382 0.06059775 11.0228121 0.07853277 12.98828125 0.09765625 C12.98828125 0.75765625 12.98828125 1.41765625 12.98828125 2.09765625 C14.30828125 2.09765625 15.62828125 2.09765625 16.98828125 2.09765625 C16.98828125 6.05765625 16.98828125 10.01765625 16.98828125 14.09765625 C18.30828125 14.09765625 19.62828125 14.09765625 20.98828125 14.09765625 C21.48328125 18.55265625 21.48328125 18.55265625 21.98828125 23.09765625 C19.34828125 22.76765625 16.70828125 22.43765625 13.98828125 22.09765625 C13.90578125 20.83953125 13.82328125 19.58140625 13.73828125 18.28515625 C13.35127461 14.78463352 13.35127461 14.78463352 10.92578125 12.22265625 C10.28640625 11.85140625 9.64703125 11.48015625 8.98828125 11.09765625 C8.98828125 10.43765625 8.98828125 9.77765625 8.98828125 9.09765625 C3.70828125 9.75765625 -1.57171875 10.41765625 -7.01171875 11.09765625 C-7.01171875 11.75765625 -7.01171875 12.41765625 -7.01171875 13.09765625 C-9.77448052 12.57497159 -12.33780635 11.98896038 -15.01171875 11.09765625 C-14.44907917 7.59256374 -13.35986693 6.14497617 -10.63671875 3.91015625 C-10.03085937 3.40097656 -9.425 2.89179687 -8.80078125 2.3671875 C-5.91776076 0.32137601 -3.42855601 -0.02577862 0 0 Z " fill="#6090AB" transform="translate(47.01171875,61.90234375)"/>
<path d="M0 0 C0.66 0 1.32 0 2 0 C2.433125 0.94875 2.86625 1.8975 3.3125 2.875 C4.79302201 6.20041937 4.79302201 6.20041937 8 8 C8 8.66 8 9.32 8 10 C8.5775 10.268125 9.155 10.53625 9.75 10.8125 C12 12 12 12 13.875 13.5625 C16.53785234 15.36384129 18.83835725 15.64072241 22 16 C22 19.96 22 23.92 22 28 C18 30 18 30 15.99609375 29.83203125 C13.55094428 28.81282022 12.00586115 27.48462803 10.0625 25.6875 C7.79374248 23.60886182 5.63167805 21.73576903 3.125 19.9375 C0.25986441 17.32517049 -0.31344668 15.84469862 -1 12 C-0.85586886 7.97462312 -0.4787678 3.99835814 0 0 Z " fill="#235576" transform="translate(18,73)"/>
<path d="M0 0 C4.54704529 2.05419458 8.28669884 5.12929648 12.24609375 8.125 C14.88516148 10.07889667 14.88516148 10.07889667 17.74609375 11.0390625 C20 12 20 12 21.625 15.375 C23.3856256 20.82790901 24.68982636 26.42479301 26 32 C24.35 32.66 22.7 33.32 21 34 C21 35.32 21 36.64 21 38 C20.34 38 19.68 38 19 38 C18.84144531 37.24976563 18.68289062 36.49953125 18.51953125 35.7265625 C15.78589648 23.7348166 12.85344713 16.50901654 2.42578125 9.49609375 C0.1076572 8.01679625 0.1076572 8.01679625 -2 7 C-1.125 1.125 -1.125 1.125 0 0 Z " fill="#6D9EBC" transform="translate(79,22)"/>
<path d="M0 0 C0.31453125 0.91523438 0.6290625 1.83046875 0.953125 2.7734375 C1.38109375 3.96195313 1.8090625 5.15046875 2.25 6.375 C2.66765625 7.55835938 3.0853125 8.74171875 3.515625 9.9609375 C4.75786867 12.99345117 4.75786867 12.99345117 6.8359375 14.62890625 C9.15749743 15.25387004 9.15749743 15.25387004 11.5859375 13.62890625 C13.44070449 12.25471614 15.2948745 10.87971991 17.1484375 9.50390625 C20.616917 7.67463967 22.28658701 7.98675309 26 9 C26 9.66 26 10.32 26 11 C29.96 11 33.92 11 38 11 C38 12.32 38 13.64 38 15 C39.32 15 40.64 15 42 15 C41.67 16.32 41.34 17.64 41 19 C40.071875 18.175 39.14375 17.35 38.1875 16.5 C33.35778655 13.04180761 28.72060635 13.38132702 23 14 C17.38210449 14.95218568 14.09915848 17.19889883 9.89453125 20.85546875 C8 22 8 22 5.9296875 21.859375 C2.22708396 20.21044225 -0.22075868 16.55848263 -2 13 C-2.039992 11.00039988 -2.04346799 8.99952758 -2 7 C-4.31 7.66 -6.62 8.32 -9 9 C-9.66 8.01 -10.32 7.02 -11 6 C-9.54550599 4.9944239 -8.08627557 3.99569565 -6.625 3 C-5.40683594 2.1646875 -5.40683594 2.1646875 -4.1640625 1.3125 C-2 0 -2 0 0 0 Z " fill="#2A464E" transform="translate(42,21)"/>
<path d="M0 0 C1.20273732 10.47383752 1.20273732 10.47383752 -1.39453125 13.76953125 C-3.54317555 15.1479894 -5.61464543 16.08685645 -8 17 C-9.423125 17.58201172 -9.423125 17.58201172 -10.875 18.17578125 C-18.17332474 21 -18.17332474 21 -22 21 C-22.30976199 11.86202139 -22.30976199 11.86202139 -20 8 C-17.49056904 6.69826942 -15.26668204 5.72558139 -12.625 4.8125 C-8.90822096 3.44896899 -3.80392187 0 0 0 Z " fill="#1B4660" transform="translate(112,91)"/>
<path d="M0 0 C0 0.66 0 1.32 0 2 C0.639375 2.309375 1.27875 2.61875 1.9375 2.9375 C4 4 4 4 5 5 C5.47524752 12.36633663 5.47524752 12.36633663 3.5 15 C3.005 15.33 2.51 15.66 2 16 C1.31550781 15.67257813 0.63101563 15.34515625 -0.07421875 15.0078125 C-3.48912059 13.83151788 -6.21031284 13.80222854 -9.8125 13.875 C-10.97394531 13.89304687 -12.13539062 13.91109375 -13.33203125 13.9296875 C-14.65267578 13.96449219 -14.65267578 13.96449219 -16 14 C-17.31157516 11.37684968 -16.89649988 9.76966564 -16.5625 6.875 C-16.46066406 5.96492188 -16.35882813 5.05484375 -16.25390625 4.1171875 C-16.17011719 3.41851562 -16.08632813 2.71984375 -16 2 C-10.42932723 0.40837921 -5.78898419 -0.20674944 0 0 Z " fill="#215273" transform="translate(56,71)"/>
<path d="M0 0 C2.52845528 1.26422764 2.76422764 2.52845528 4 5 C4.66 5.33 5.32 5.66 6 6 C6 6.66 6 7.32 6 8 C8.65228812 9.07525194 11.28368454 10.09456151 14 11 C14 11.66 14 12.32 14 13 C13.21496094 13.07476562 12.42992188 13.14953125 11.62109375 13.2265625 C4.48609339 14.11953187 -0.2825512 15.38180854 -5 21 C-5.33 21.66 -5.66 22.32 -6 23 C-7.32 23 -8.64 23 -10 23 C-11.38416419 17.99120246 -12.15619159 13.12337397 -11 8 C-7.91196337 4.43257058 -4.19397051 2.09698526 0 0 Z " fill="#E5BF68" transform="translate(38,49)"/>
<path d="M0 0 C2.31 0.66 4.62 1.32 7 2 C6.62875 2.7425 6.2575 3.485 5.875 4.25 C4.70484137 6.94283647 4.70484137 6.94283647 5.875 9.3125 C6.431875 10.1478125 6.431875 10.1478125 7 11 C7.66 11 8.32 11 9 11 C9 12.32 9 13.64 9 15 C10.32 15 11.64 15 13 15 C13 17.64 13 20.28 13 23 C6.98842593 27.04861111 6.98842593 27.04861111 2.1875 26.8125 C-1 26 -1 26 -3 25 C-2.67 24.01 -2.34 23.02 -2 22 C1.465 21.505 1.465 21.505 5 21 C2.70388539 16.67790191 -0.28375605 13.44248617 -3.671875 9.96484375 C-5 8 -5 8 -4.83203125 5.89453125 C-3.71661819 3.35474095 -2.04039458 1.84293704 0 0 Z " fill="#699BBA" transform="translate(27,21)"/>
<path d="M0 0 C7.26 0 14.52 0 22 0 C21.67 1.65 21.34 3.3 21 5 C20.93628632 6.60303627 20.91355786 8.20837672 20.9375 9.8125 C20.94652344 10.60269531 20.95554687 11.39289063 20.96484375 12.20703125 C20.97644531 12.79871094 20.98804687 13.39039062 21 14 C20.01 14 19.02 14 18 14 C18 14.99 18 15.98 18 17 C16.68 17 15.36 17 14 17 C14 15.68 14 14.36 14 13 C10.04 13 6.08 13 2 13 C2.33 9.04 2.66 5.08 3 1 C2.01 0.67 1.02 0.34 0 0 Z " fill="#205171" transform="translate(70,99)"/>
<path d="M0 0 C3.96930989 -0.02465881 7.93859034 -0.04284023 11.90795898 -0.05493164 C13.25920386 -0.05997057 14.61044326 -0.06680177 15.96166992 -0.07543945 C17.90020434 -0.08752419 19.838778 -0.09269828 21.77734375 -0.09765625 C23.52905884 -0.10551147 23.52905884 -0.10551147 25.31616211 -0.11352539 C28 0 28 0 29 1 C29.23481693 3.18292774 29.41363323 5.37203174 29.5625 7.5625 C29.68818359 9.35880859 29.68818359 9.35880859 29.81640625 11.19140625 C29.87699219 12.11824219 29.93757813 13.04507813 30 14 C28.72740489 13.54658132 27.45698757 13.08704773 26.1875 12.625 C25.47980469 12.36976562 24.77210937 12.11453125 24.04296875 11.8515625 C22 11 22 11 19 9 C16.78415454 8.55296766 14.55158039 8.18536758 12.3125 7.875 C11.13300781 7.70742187 9.95351562 7.53984375 8.73828125 7.3671875 C7.38283203 7.18542969 7.38283203 7.18542969 6 7 C6 6.01 6 5.02 6 4 C4.35 4 2.7 4 1 4 C0.67 2.68 0.34 1.36 0 0 Z " fill="#E7BF68" transform="translate(66,68)"/>
<path d="M0 0 C0.57363281 0.45955078 1.14726563 0.91910156 1.73828125 1.39257812 C2.32738281 1.84826172 2.91648438 2.30394531 3.5234375 2.7734375 C7.84302197 6.16455956 7.84302197 6.16455956 8.98828125 8.45507812 C4.33800135 6.36135021 0.50174681 3.18774252 -3.55078125 0.13476562 C-5.79044804 -1.7328364 -5.79044804 -1.7328364 -8.01171875 -1.54492188 C-8.67171875 0.10507812 -9.33171875 1.75507813 -10.01171875 3.45507812 C-11.02492188 3.56464844 -12.038125 3.67421875 -13.08203125 3.78710938 C-14.43366336 3.94667706 -15.78522218 4.10686645 -17.13671875 4.26757812 C-17.801875 4.33783203 -18.46703125 4.40808594 -19.15234375 4.48046875 C-23.65225896 5.03192895 -27.07932326 6.21937041 -31.01171875 8.45507812 C-31.34171875 7.79507813 -31.67171875 7.13507812 -32.01171875 6.45507812 C-34.32578095 5.72432164 -36.66000744 5.05369555 -39.01171875 4.45507812 C-38.35171875 4.12507813 -37.69171875 3.79507812 -37.01171875 3.45507812 C-36.68171875 2.46507812 -36.35171875 1.47507812 -36.01171875 0.45507812 C-36.01171875 1.11507813 -36.01171875 1.77507813 -36.01171875 2.45507812 C-35.47546875 2.20113281 -34.93921875 1.9471875 -34.38671875 1.68554688 C-28.92362649 -0.71354134 -23.5363199 -2.23587987 -17.69921875 -3.35742188 C-17.01794922 -3.49317627 -16.33667969 -3.62893066 -15.63476562 -3.76879883 C-8.81743024 -4.99803076 -5.5062651 -4.27080471 0 0 Z " fill="#598FAF" transform="translate(87.01171875,24.544921875)"/>
<path d="M0 0 C2.78975548 1.63687407 4.98147211 3.46939719 7 6 C7.625 8.75 7.625 8.75 7 11 C2.62698199 13.91534534 -0.9873215 12.96735901 -6 12 C-9.0625 10.75 -9.0625 10.75 -11 9 C-11.8125 6.3125 -11.8125 6.3125 -12 4 C-8.03513219 0.1552797 -5.50607306 -0.94932294 0 0 Z " fill="#F5B747" transform="translate(74,41)"/>
<path d="M0 0 C5.28 0 10.56 0 16 0 C16 1.32 16 2.64 16 4 C17.32 4 18.64 4 20 4 C20 5.32 20 6.64 20 8 C20.66 8 21.32 8 22 8 C22 9.32 22 10.64 22 12 C22.66 12 23.32 12 24 12 C24 13.32 24 14.64 24 16 C23.01 16 22.02 16 21 16 C20.6596875 14.63875 20.6596875 14.63875 20.3125 13.25 C18.76350023 9.41438153 17.56871184 8.0619224 14 6 C10.09800946 5.52080818 7.93763128 5.42299614 4.5625 7.5 C4.046875 7.995 3.53125 8.49 3 9 C3.65585189 12.60992379 3.65585189 12.60992379 5 16 C3.35 16 1.7 16 0 16 C0 10.72 0 5.44 0 0 Z " fill="#E6983E" transform="translate(60,36)"/>
<path d="M0 0 C0.66 0 1.32 0 2 0 C2.433125 0.94875 2.86625 1.8975 3.3125 2.875 C4.79302201 6.20041937 4.79302201 6.20041937 8 8 C8 8.66 8 9.32 8 10 C8.66 10 9.32 10 10 10 C10.05410687 11.77049689 10.09284119 13.54146849 10.125 15.3125 C10.14820313 16.29863281 10.17140625 17.28476563 10.1953125 18.30078125 C10 21 10 21 8 24 C-0.13043478 17.86956522 -0.13043478 17.86956522 -1 12 C-0.84520257 7.97526679 -0.47875746 3.99827179 0 0 Z " fill="#215777" transform="translate(18,73)"/>
<path d="M0 0 C4.09332551 1.81925578 7.61674275 4.41536578 11.25 7 C11.8996875 7.45117188 12.549375 7.90234375 13.21875 8.3671875 C14.85075709 9.52604968 16.4304825 10.75781503 18 12 C18 12.66 18 13.32 18 14 C14.58751839 16.07186384 14.58751839 16.07186384 12.1796875 15.77734375 C9.36789709 14.77457262 7.28532687 13.25558136 4.875 11.5 C1.55530546 9.05517657 1.55530546 9.05517657 -2 7 C-1.125 1.125 -1.125 1.125 0 0 Z " fill="#61B9D4" transform="translate(79,22)"/>
<path d="M0 0 C3.33049122 1.42630308 5.31738937 3.15014396 7.6875 5.875 C8.28949219 6.55304687 8.89148438 7.23109375 9.51171875 7.9296875 C11.00766194 10.01065834 11.5789756 11.49630826 12 14 C10.40119187 14.41694996 8.79558739 14.80790856 7.1875 15.1875 C6.29417969 15.40792969 5.40085937 15.62835938 4.48046875 15.85546875 C2 16 2 16 0.19140625 14.828125 C-1.28830612 12.55761552 -1.34078465 11.25426492 -1.25 8.5625 C-1.23453125 7.80066406 -1.2190625 7.03882813 -1.203125 6.25390625 C-1.00665883 4.07388739 -0.59405998 2.10316396 0 0 Z " fill="#255878" transform="translate(20,28)"/>
<path d="M0 0 C1.32 0 2.64 0 4 0 C4.08040527 0.54938232 4.16081055 1.09876465 4.24365234 1.66479492 C4.61444691 4.17334447 4.99463528 6.68038446 5.375 9.1875 C5.56449219 10.48397461 5.56449219 10.48397461 5.7578125 11.80664062 C6.4248812 16.15926387 7.24013264 19.93700188 9 24 C9 24.99 9 25.98 9 27 C7.68 27.33 6.36 27.66 5 28 C-0.13988228 19.82291456 -0.31889402 9.40737353 0 0 Z " fill="#1B495F" transform="translate(94,60)"/>
<path d="M0 0 C1.15316726 6.34241995 1.09507063 12.56688704 1 19 C-2.4375 18.1875 -2.4375 18.1875 -6 17 C-7.28317892 13.15046324 -7.06643637 10.05261865 -7 6 C-6.34 6 -5.68 6 -5 6 C-5 4.68 -5 3.36 -5 2 C-2 0 -2 0 0 0 Z " fill="#6B9CBC" transform="translate(105,54)"/>
<path d="M0 0 C2.31 0 4.62 0 7 0 C7.02687279 1.81242052 7.04633715 3.62495233 7.0625 5.4375 C7.07410156 6.44683594 7.08570312 7.45617187 7.09765625 8.49609375 C7 11 7 11 6 12 C3.66702567 12.04092937 1.33294775 12.04241723 -1 12 C-1.14285714 3.42857143 -1.14285714 3.42857143 0 0 Z " fill="#16405B" transform="translate(66,100)"/>
<path d="M0 0 C0.33 0 0.66 0 1 0 C1.08131463 1.43655854 1.13933559 2.8744483 1.1875 4.3125 C1.22230469 5.11300781 1.25710937 5.91351563 1.29296875 6.73828125 C0.92217843 9.60078251 0.26559906 10.25309101 -2 12 C-3.70647522 13.00316754 -5.41497268 14.00289952 -7.125 15 C-10.30680048 17.15049015 -11.75512992 18.18777469 -12.875 21.90234375 C-13.10063626 24.64170891 -13.16857785 27.25813081 -13 30 C-13.33 30 -13.66 30 -14 30 C-15.21224305 16.91787707 -15.21224305 16.91787707 -12.4296875 12.515625 C-8.71812214 9.2133197 -4.88859088 7.09993295 0 6 C0 4.02 0 2.04 0 0 Z " fill="#294E59" transform="translate(40,38)"/>
<path d="M0 0 C0 1.32 0 2.64 0 4 C0.99 4.33 1.98 4.66 3 5 C2.01 7.31 1.02 9.62 0 12 C-1.8125 11.8125 -1.8125 11.8125 -4 11 C-6.70024001 7.49968887 -7.49416388 4.35019062 -8 0 C-4.94736336 -0.98120464 -3.05263664 -0.98120464 0 0 Z " fill="#58B5D0" transform="translate(28,68)"/>
<path d="M0 0 C0.3403125 1.794375 0.3403125 1.794375 0.6875 3.625 C1.7948776 8.16767308 3.80831111 10.64032749 7 14 C8.65 13.67 10.3 13.34 12 13 C12 13.99 12 14.98 12 16 C9.36 16 6.72 16 4 16 C4 17.32 4 18.64 4 20 C2.68 19.67 1.36 19.34 0 19 C0 15.37 0 11.74 0 8 C-1.32 8 -2.64 8 -4 8 C-4 6.68 -4 5.36 -4 4 C-4.66 4 -5.32 4 -6 4 C-5.67 3.01 -5.34 2.02 -5 1 C-3 0 -3 0 0 0 Z " fill="#C4A563" transform="translate(40,28)"/>
<path d="M0 0 C1.875 0.5625 1.875 0.5625 4 2 C5.44239217 5.89445887 6 8.83522036 6 13 C2.87498361 12.62705566 -0.06418547 12.15929788 -3 11 C-4.5625 7.875 -4.5625 7.875 -5 5 C-3.02 4.34 -1.04 3.68 1 3 C0.67 2.01 0.34 1.02 0 0 Z " fill="#5890B0" transform="translate(96,33)"/>
<path d="M0 0 C4.875 2.875 4.875 2.875 6 4 C6.47184987 11.31367292 6.47184987 11.31367292 4.625 14 C3 15 3 15 1 15 C1 14.01 1 13.02 1 12 C0.34 12 -0.32 12 -1 12 C-1.14285714 3.42857143 -1.14285714 3.42857143 0 0 Z " fill="#17405C" transform="translate(55,72)"/>
<path d="M0 0 C0.50367757 1.45706726 1.00282556 2.91570096 1.5 4.375 C1.7784375 5.18710937 2.056875 5.99921875 2.34375 6.8359375 C3 9 3 9 3 11 C1.35 11 -0.3 11 -2 11 C-2 9.68 -2 8.36 -2 7 C-4.31 7.66 -6.62 8.32 -9 9 C-9.66 8.01 -10.32 7.02 -11 6 C-9.54550599 4.9944239 -8.08627557 3.99569565 -6.625 3 C-5.40683594 2.1646875 -5.40683594 2.1646875 -4.1640625 1.3125 C-2 0 -2 0 0 0 Z " fill="#1C475E" transform="translate(42,21)"/>
<path d="M0 0 C0.58910156 0.45568359 1.17820312 0.91136719 1.78515625 1.38085938 C6.10474072 4.77198143 6.10474072 4.77198143 7.25 7.0625 C2.5997201 4.96877208 -1.23653444 1.7951644 -5.2890625 -1.2578125 C-7.52872929 -3.12541452 -7.52872929 -3.12541452 -9.75 -2.9375 C-10.74 -1.4525 -10.74 -1.4525 -11.75 0.0625 C-12.08 -1.2575 -12.41 -2.5775 -12.75 -3.9375 C-14.07 -3.9375 -15.39 -3.9375 -16.75 -3.9375 C-16.75 -3.2775 -16.75 -2.6175 -16.75 -1.9375 C-19.72 -1.2775 -22.69 -0.6175 -25.75 0.0625 C-26.08 -0.9275 -26.41 -1.9175 -26.75 -2.9375 C-16.24892948 -6.21908454 -9.00883452 -7.2171899 0 0 Z " fill="#5A8FA7" transform="translate(88.75,25.9375)"/>
<path d="M0 0 C0.02686553 1.97909398 0.04633375 3.95828971 0.0625 5.9375 C0.07410156 7.03964844 0.08570313 8.14179687 0.09765625 9.27734375 C0 12 0 12 -1 13 C-2.65 13 -4.3 13 -6 13 C-6 9.04 -6 5.08 -6 1 C-4 0 -4 0 0 0 Z " fill="#13425D" transform="translate(40,89)"/>
<path d="M0 0 C0.66 0 1.32 0 2 0 C6.28279792 6.96510388 7.86299748 11.9417966 6 20 C5.67 20.99 5.34 21.98 5 23 C10.61 23 16.22 23 22 23 C22 23.33 22 23.66 22 24 C16.06 24 10.12 24 4 24 C2.98149217 20.94447652 3.01395828 19.66324373 3.4375 16.5625 C3.83057284 13.62191708 4 10.9958149 4 8 C2.68 8 1.36 8 0 8 C0 5.36 0 2.72 0 0 Z " fill="#627A79" transform="translate(64,68)"/>
<path d="M0 0 C5.28798182 0.41474367 8.11690718 1.35224614 12 5 C5.67272727 8.16363636 5.67272727 8.16363636 2.6875 7.4375 C0.72192543 5.76312166 -0.16166925 4.43878037 -1 2 C-0.67 1.34 -0.34 0.68 0 0 Z " fill="#5DB6D2" transform="translate(88,90)"/>
<path d="M0 0 C0.33 0 0.66 0 1 0 C1.36532144 2.85313024 1.71751313 5.70689904 2.0625 8.5625 C2.16626953 9.36236328 2.27003906 10.16222656 2.37695312 10.98632812 C2.95816875 15.89659802 3.11303361 20.15989383 2 25 C1.34 25.33 0.68 25.66 0 26 C-1.20209556 22.23152584 -1.132906 18.62073676 -1.125 14.6875 C-1.12757812 13.41261719 -1.13015625 12.13773438 -1.1328125 10.82421875 C-1.00388874 7.11197286 -0.59632587 3.6584119 0 0 Z " fill="#437799" transform="translate(16,55)"/>
<path d="M0 0 C4.455 0.99 4.455 0.99 9 2 C9 3.32 9 4.64 9 6 C6.5 7.75 6.5 7.75 4 9 C2 7.875 2 7.875 0 6 C-0.25 2.8125 -0.25 2.8125 0 0 Z " fill="#6A9BBA" transform="translate(46,28)"/>
<path d="M0 0 C3.43752007 1.5277867 6.18953688 3.50181056 9 6 C9 6.66 9 7.32 9 8 C4.99799622 9.60080151 1.95443764 8.29279692 -2 7 C-1.125 1.125 -1.125 1.125 0 0 Z " fill="#A3D6D0" transform="translate(79,22)"/>
<path d="M0 0 C0.33 0.66 0.66 1.32 1 2 C1.66 2 2.32 2 3 2 C3.05410687 3.77049689 3.09284119 5.54146849 3.125 7.3125 C3.14820313 8.29863281 3.17140625 9.28476563 3.1953125 10.30078125 C3 13 3 13 1 16 C-0.65 14.35 -2.3 12.7 -4 11 C-3.01 11 -2.02 11 -1 11 C-0.67 7.37 -0.34 3.74 0 0 Z " fill="#346888" transform="translate(25,81)"/>
<path d="M0 0 C2.97 0 5.94 0 9 0 C8.67 1.65 8.34 3.3 8 5 C7.01 5 6.02 5 5 5 C4.67 6.32 4.34 7.64 4 9 C3.01 8.34 2.02 7.68 1 7 C0.3125 3.375 0.3125 3.375 0 0 Z " fill="#346788" transform="translate(79,99)"/>
<path d="M0 0 C0.33 0.66 0.66 1.32 1 2 C-4.61 2 -10.22 2 -16 2 C-16 3.32 -16 4.64 -16 6 C-17.98 6 -19.96 6 -22 6 C-17.87792642 1.27173913 -17.87792642 1.27173913 -14.375 0.1875 C-9.58017886 -0.07887895 -4.80059405 -0.07687784 0 0 Z " fill="#B7905D" transform="translate(76,34)"/>
<path d="M0 0 C1.9078584 3.1749094 2.1609041 5.10585211 1.625 8.75 C1.45871094 9.94882812 1.45871094 9.94882812 1.2890625 11.171875 C1.14597656 12.07679687 1.14597656 12.07679687 1 13 C-1.52827282 9.86975746 -3.20542002 6.58915997 -5 3 C-5.66 2.34 -6.32 1.68 -7 1 C-3.535 0.505 -3.535 0.505 0 0 Z " fill="#2A4750" transform="translate(91,39)"/>
<path d="M0 0 C0.99 0 1.98 0 3 0 C7.59225513 9.22551253 7.59225513 9.22551253 7 15 C6.34 15 5.68 15 5 15 C4.16260219 12.8765984 3.33019717 10.7512272 2.5 8.625 C1.80390625 6.84996094 1.80390625 6.84996094 1.09375 5.0390625 C0 2 0 2 0 0 Z " fill="#63A6C7" transform="translate(43,13)"/>
<path d="M0 0 C1.32 0 2.64 0 4 0 C4 2.64 4 5.28 4 8 C3.34 8 2.68 8 2 8 C2 10.97 2 13.94 2 17 C1.67 17 1.34 17 1 17 C0.1679418 11.27959989 -0.12036664 5.77759884 0 0 Z " fill="#3B5450" transform="translate(94,60)"/>
<path d="M0 0 C0.33 4.62 0.66 9.24 1 14 C0.34 12.68 -0.32 11.36 -1 10 C-1.515625 9.525625 -2.03125 9.05125 -2.5625 8.5625 C-4.45263121 6.50800956 -4.6324247 4.72005723 -5 2 C-2 0 -2 0 0 0 Z " fill="#3D7B9A" transform="translate(105,54)"/>
<path d="M0 0 C2.475 0.495 2.475 0.495 5 1 C5.33 1.99 5.66 2.98 6 4 C5.54625 4.4125 5.0925 4.825 4.625 5.25 C2.94049626 7.06408095 2.00734029 8.75285627 1 11 C0.67 11 0.34 11 0 11 C0 7.37 0 3.74 0 0 Z " fill="#1C4A63" transform="translate(50,96)"/>
<path d="M0 0 C2.31 0 4.62 0 7 0 C6.21625 0.763125 5.4325 1.52625 4.625 2.3125 C1.92742283 4.90891805 1.92742283 4.90891805 0 8 C-1.32 8 -2.64 8 -4 8 C-4 6.68 -4 5.36 -4 4 C-2.68 4 -1.36 4 0 4 C0 2.68 0 1.36 0 0 Z " fill="#CCB675" transform="translate(32,64)"/>
<path d="M0 0 C0.99 0.33 1.98 0.66 3 1 C3 2.32 3 3.64 3 5 C0.69 5.66 -1.62 6.32 -4 7 C-4.66 6.01 -5.32 5.02 -6 4 C-3.1875 1.9375 -3.1875 1.9375 0 0 Z " fill="#274E5D" transform="translate(37,23)"/>
<path d="M0 0 C1.4540625 0.0309375 1.4540625 0.0309375 2.9375 0.0625 C1.7309375 0.9596875 1.7309375 0.9596875 0.5 1.875 C-3.41740427 5.68174313 -2.96322123 10.90902934 -3.0625 16.0625 C-3.3925 16.0625 -3.7225 16.0625 -4.0625 16.0625 C-4.08935095 13.58326199 -4.10926547 11.1043116 -4.125 8.625 C-4.13756836 7.56442383 -4.13756836 7.56442383 -4.15039062 6.48242188 C-4.15903588 4.67556441 -4.11470011 2.86862397 -4.0625 1.0625 C-3.0625 0.0625 -3.0625 0.0625 0 0 Z " fill="#47523D" transform="translate(30.0625,51.9375)"/>
<path d="M0 0 C3.96 0 7.92 0 12 0 C12 0.99 12 1.98 12 3 C8.04 3 4.08 3 0 3 C0 2.01 0 1.02 0 0 Z " fill="#E39D35" transform="translate(68,53)"/>
<path d="M0 0 C-0.99 0.33 -1.98 0.66 -3 1 C-3 1.66 -3 2.32 -3 3 C-5.97 3.66 -8.94 4.32 -12 5 C-12.33 4.01 -12.66 3.02 -13 2 C-8.46298506 0.54815522 -4.81938524 -0.23509196 0 0 Z " fill="#4681A2" transform="translate(75,21)"/>
<path d="M0 0 C0.99 0.33 1.98 0.66 3 1 C2.88648483 2.81325551 2.75887039 4.62563357 2.625 6.4375 C2.55539063 7.44683594 2.48578125 8.45617187 2.4140625 9.49609375 C2.27742188 10.32238281 2.14078125 11.14867188 2 12 C1.01 12.495 1.01 12.495 0 13 C0 8.71 0 4.42 0 0 Z " fill="#346A88" transform="translate(16,68)"/>
<path d="M0 0 C1.32 0 2.64 0 4 0 C4 0.66 4 1.32 4 2 C4.66 2 5.32 2 6 2 C6 3.32 6 4.64 6 6 C6.66 6 7.32 6 8 6 C8 7.32 8 8.64 8 10 C7.01 10 6.02 10 5 10 C4.731875 9.0925 4.46375 8.185 4.1875 7.25 C3.10423706 4.28528037 2.01640543 2.3830246 0 0 Z " fill="#E29A34" transform="translate(76,42)"/>
<path d="M0 0 C1.32 0 2.64 0 4 0 C4 1.32 4 2.64 4 4 C5.32 4 6.64 4 8 4 C7.67 5.32 7.34 6.64 7 8 C5.82512964 7.24172908 4.66027408 6.46792245 3.5 5.6875 C2.52546875 5.04361328 2.52546875 5.04361328 1.53125 4.38671875 C1.0259375 3.92910156 0.520625 3.47148438 0 3 C0 2.01 0 1.02 0 0 Z " fill="#354443" transform="translate(76,32)"/>
<path d="M0 0 C1.9451 2.91765 2.45276317 4.62537285 3 8 C1.35 8.66 -0.3 9.32 -2 10 C-2.17942163 6.05272412 -2.09350689 3.4019487 0 0 Z " fill="#6298B5" transform="translate(102,46)"/>
<path d="M0 0 C0.99 0 1.98 0 3 0 C3 0.66 3 1.32 3 2 C8.28 2 13.56 2 19 2 C19 2.66 19 3.32 19 4 C12.73 3.67 6.46 3.34 0 3 C0 2.01 0 1.02 0 0 Z " fill="#BABEA8" transform="translate(69,88)"/>
<path d="M0 0 C0.66 0.33 1.32 0.66 2 1 C1.01 1.66 0.02 2.32 -1 3 C-1.72382467 5.05925139 -1.72382467 5.05925139 -2 7 C-4.31 7 -6.62 7 -9 7 C-6.25604436 4.05278838 -3.61662784 1.80831392 0 0 Z " fill="#C8B77C" transform="translate(38,49)"/>
<path d="M0 0 C1.98 0 3.96 0 6 0 C6 1.32 6 2.64 6 4 C5.34 4 4.68 4 4 4 C3.67 4.99 3.34 5.98 3 7 C0 2.25 0 2.25 0 0 Z " fill="#3B4B46" transform="translate(40,32)"/>
<path d="M0 0 C1.32 0 2.64 0 4 0 C4 3.96 4 7.92 4 12 C3.34 12 2.68 12 2 12 C2.04125 11.13375 2.0825 10.2675 2.125 9.375 C1.99542279 5.87641532 1.23980344 3.25448403 0 0 Z " fill="#D9BF7C" transform="translate(68,72)"/>
<path d="M0 0 C0.33 0 0.66 0 1 0 C1 2.31 1 4.62 1 7 C-0.32 7.33 -1.64 7.66 -3 8 C-3 6.02 -3 4.04 -3 2 C-2.01 2 -1.02 2 0 2 C0 1.34 0 0.68 0 0 Z " fill="#21506B" transform="translate(39,94)"/>
<path d="M0 0 C0.99 0 1.98 0 3 0 C3.33 2.64 3.66 5.28 4 8 C2.68 8 1.36 8 0 8 C0 5.36 0 2.72 0 0 Z " fill="#184962" transform="translate(96,68)"/>
<path d="M0 0 C4 4.875 4 4.875 4 6 C2.35 6 0.7 6 -1 6 C-1.33 7.32 -1.66 8.64 -2 10 C-2 7.36 -2 4.72 -2 2 C-1.34 2 -0.68 2 0 2 C0 1.34 0 0.68 0 0 Z " fill="#5A92B0" transform="translate(100,58)"/>
<path d="M0 0 C1.32 0 2.64 0 4 0 C4 2.64 4 5.28 4 8 C3.34 8 2.68 8 2 8 C2 6.68 2 5.36 2 4 C1.34 4 0.68 4 0 4 C0 2.68 0 1.36 0 0 Z " fill="#264758" transform="translate(92,52)"/>
<path d="M0 0 C-0.33 1.65 -0.66 3.3 -1 5 C-2.98 5 -4.96 5 -7 5 C-2.25 0 -2.25 0 0 0 Z " fill="#23495D" transform="translate(60,31)"/>
<path d="M0 0 C1.8125 0.1875 1.8125 0.1875 4 1 C5.75 3.5625 5.75 3.5625 7 6 C6.01 6 5.02 6 4 6 C4 5.34 4 4.68 4 4 C2.68 4 1.36 4 0 4 C0 2.68 0 1.36 0 0 Z " fill="#448AB1" transform="translate(84,92)"/>
<path d="M0 0 C1.32 0.33 2.64 0.66 4 1 C4 3.64 4 6.28 4 9 C1.49701566 6.06171403 0.53069061 3.82097239 0 0 Z " fill="#395154" transform="translate(96,79)"/>
<path d="M0 0 C1.98 0 3.96 0 6 0 C6 1.32 6 2.64 6 4 C3.03 3.505 3.03 3.505 0 3 C0 2.01 0 1.02 0 0 Z " fill="#D09449" transform="translate(88,56)"/>
<path d="M0 0 C0.33 0 0.66 0 1 0 C1.02689216 1.47906892 1.04634621 2.95827483 1.0625 4.4375 C1.07410156 5.26121094 1.08570313 6.08492187 1.09765625 6.93359375 C1 9 1 9 0 10 C-1.66617115 10.04063832 -3.33388095 10.042721 -5 10 C-4.360625 9.46375 -3.72125 8.9275 -3.0625 8.375 C-0.61470596 5.55632807 -0.33285388 3.66139268 0 0 Z " fill="#363F37" transform="translate(40,38)"/>
<path d="M0 0 C2.31 0 4.62 0 7 0 C7 1.65 7 3.3 7 5 C4.11562221 3.70700306 2.12780579 2.34058637 0 0 Z " fill="#6BB4C4" transform="translate(81,30)"/>
<path d="M0 0 C1.32 0 2.64 0 4 0 C4 1.65 4 3.3 4 5 C2.68 5 1.36 5 0 5 C0 3.35 0 1.7 0 0 Z " fill="#5E93B4" transform="translate(72,22)"/>
<path d="M0 0 C2.31 0 4.62 0 7 0 C6.01 0.33 5.02 0.66 4 1 C4 1.99 4 2.98 4 4 C2.68 4 1.36 4 0 4 C0 2.68 0 1.36 0 0 Z " fill="#5B8DAE" transform="translate(84,112)"/>
<path d="M0 0 C2.31 0 4.62 0 7 0 C5.1875 2 5.1875 2 3 4 C2.01 4 1.02 4 0 4 C0 2.68 0 1.36 0 0 Z " fill="#D7BD7B" transform="translate(32,64)"/>
<path d="M0 0 C2.91517292 1.07401108 4.77810176 1.77810176 7 4 C4.69 4 2.38 4 0 4 C0 2.68 0 1.36 0 0 Z " fill="#D29B56" transform="translate(76,36)"/>
<path d="M0 0 C2 2 2 2 2.125 5.125 C2.08375 6.07375 2.0425 7.0225 2 8 C1.34 8 0.68 8 0 8 C-0.66 6.02 -1.32 4.04 -2 2 C-1.34 1.34 -0.68 0.68 0 0 Z " fill="#5B9FC0" transform="translate(48,20)"/>
<path d="M0 0 C2.64 0 5.28 0 8 0 C6.68 0.33 5.36 0.66 4 1 C4 1.66 4 2.32 4 3 C2.35 2.67 0.7 2.34 -1 2 C-0.67 1.34 -0.34 0.68 0 0 Z " fill="#508AAB" transform="translate(36,72)"/>
<path d="M0 0 C1.32 0.33 2.64 0.66 4 1 C4 2.32 4 3.64 4 5 C2.68 5 1.36 5 0 5 C0 3.35 0 1.7 0 0 Z " fill="#5FAFC1" transform="translate(24,67)"/>
<path d="M0 0 C0 1.98 0 3.96 0 6 C-0.99 6 -1.98 6 -3 6 C-3.33 4.68 -3.66 3.36 -4 2 C-1 0 -1 0 0 0 Z " fill="#2D6E8A" transform="translate(104,54)"/>
<path d="M0 0 C1.485 0.99 1.485 0.99 3 2 C5.64632287 1.6878236 5.64632287 1.6878236 8 1 C8 1.99 8 2.98 8 4 C5.36 4 2.72 4 0 4 C0 2.68 0 1.36 0 0 Z " fill="#AF986D" transform="translate(44,40)"/>
</svg>
